<svg xmlns="http://www.w3.org/2000/svg" xmlns:xlink="http://www.w3.org/1999/xlink" version="1.1" x="0px" y="0px" viewBox="0 0 64 80" enable-background="new 0 0 64 64" xml:space="preserve"><g><circle cx="32.03" cy="33.212" r="2.364"/><path d="M58.889,33.566l0.051,0.01l-5.091-10.788c-1.818-3.879-6-6.242-10.364-5.636c-0.606,0.061-1.152,0.242-1.576,0.424   c-1.394,0.667-4.242,1.212-6.545,1.576c0,0,0,0,0,0.061c0,1.879-1.515,3.333-3.333,3.333c-1.879,0-3.333-1.515-3.333-3.333   c0,0,0,0,0-0.061c-2.303-0.364-5.151-0.909-6.545-1.576c-0.424-0.182-0.97-0.364-1.576-0.424   c-4.364-0.606-8.545,1.818-10.364,5.636l-4.225,8.953c-1.049,1.783-1.654,3.859-1.654,6.077c0,6.627,5.373,12,12,12   c6.21,0,11.318-4.717,11.937-10.764c2.48-0.252,4.98-0.252,7.459,0c0.619,6.047,5.727,10.764,11.937,10.764c6.627,0,12-5.373,12-12   C59.667,36.321,59.39,34.888,58.889,33.566z M16.333,45.151c-4.05,0-7.333-3.283-7.333-7.333s3.283-7.333,7.333-7.333   c4.05,0,7.333,3.283,7.333,7.333S20.383,45.151,16.333,45.151z M32.03,36.606c-1.874,0-3.394-1.519-3.394-3.394   c0-1.874,1.52-3.394,3.394-3.394c1.874,0,3.394,1.52,3.394,3.394C35.424,35.087,33.905,36.606,32.03,36.606z M38.515,26.909H32.03   h-6.485v-6.545l1.697,0.303c1.091,3.333,4.788,3.455,4.788,3.455s3.636-0.121,4.788-3.455l1.697-0.303V26.909z M47.667,45.151   c-4.05,0-7.333-3.283-7.333-7.333s3.283-7.333,7.333-7.333c4.05,0,7.333,3.283,7.333,7.333S51.717,45.151,47.667,45.151z"/><path d="M20.667,16.387c0.581,0.06,1.182,0.222,1.787,0.481l0.029,0.013c0.395,0.189,1.075,0.436,2.242,0.721   c-0.914-2.017-2.943-3.421-5.301-3.421c-2.365,0-4.399,1.412-5.309,3.438C16.086,16.543,18.379,16.073,20.667,16.387z"/><path d="M41.577,16.882l0.029-0.013c0.606-0.26,1.207-0.421,1.787-0.481c2.291-0.315,4.58,0.148,6.543,1.213   c-0.914-2.016-2.943-3.419-5.3-3.419c-2.358,0-4.387,1.404-5.301,3.421C40.502,17.317,41.182,17.07,41.577,16.882z"/></g><text x="0" y="79" fill="#000000" font-size="5px" font-weight="bold" font-family="'Helvetica Neue', Helvetica, Arial-Unicode, Arial, Sans-serif">Created by Arafat Uddin</text><text x="0" y="84" fill="#000000" font-size="5px" font-weight="bold" font-family="'Helvetica Neue', Helvetica, Arial-Unicode, Arial, Sans-serif">from the Noun Project</text></svg>