<?xml version="1.0" encoding="utf-8"?>
<!-- Generator: Adobe Illustrator 22.1.0, SVG Export Plug-In . SVG Version: 6.00 Build 0)  -->
<svg version="1.1" id="Layer_1" xmlns="http://www.w3.org/2000/svg" xmlns:xlink="http://www.w3.org/1999/xlink" x="0px" y="0px"
	 viewBox="0 0 116.6 73.6" style="enable-background:new 0 0 116.6 73.6;" xml:space="preserve">
<style type="text/css">
	.st0{fill:#FFFFFF;}
</style>
<g>
	<polygon class="st0" points="104.8,0 100.8,0 100.8,48.3 104.8,47.8 	"/>
	<polygon class="st0" points="26.8,20.3 0,6 0,16.4 4,16.4 4,12.6 22.8,22.7 22.8,51 26.8,51 	"/>
	<path class="st0" d="M85.3,52.2c-6,0.8-11.7,2.6-16.9,5.4l-0.1,0.1c-6.1,3.3-13,5-20,5h-13v4h-21v-4H8.1v6.8c0,2.3,1.8,4.1,4.1,4.1
		h90.7c4.2,0,7.9-2.8,8.9-6.9l4.8-18.3L85.3,52.2z"/>
	<rect x="16.3" y="53" class="st0" width="16.9" height="11.6"/>
	<path class="st0" d="M67.3,55.9L67.3,55.9c5.6-3,11.5-4.9,17.7-5.6l6.4-0.8V29.1H42.5l5.1,6.9l-3.4,24.5h4.1
		C54.9,60.6,61.5,59,67.3,55.9z M77.7,37.3h5.5v5.5h-5.5V37.3z M61.9,37.3h5.5v5.5h-5.5V37.3z"/>
</g>
</svg>
