<svg xmlns="http://www.w3.org/2000/svg" xmlns:xlink="http://www.w3.org/1999/xlink" version="1.1" x="0px" y="0px" viewBox="0 0 150 187.5" style="enable-background:new 0 0 150 150;" xml:space="preserve"><g><polygon points="121.5,38.2 117.5,38.2 117.5,86.5 121.5,86  "/><polygon points="43.5,58.5 16.7,44.2 16.7,54.6 20.7,54.6 20.7,50.8 39.5,60.9 39.5,89.2 43.5,89.2  "/><path d="M102,90.4C96,91.2,90.3,93,85.1,95.8l-0.1,0.1c-6.1,3.3-13,5-20,5H52v4H31v-4h-6.2v6.8c0,2.3,1.8,4.1,4.1,4.1h90.7   c4.2,0,7.9-2.8,8.9-6.9l4.8-18.3L102,90.4z"/><rect x="33" y="91.2" width="16.9" height="11.6"/><path d="M84,94.1l0.1-0.1c5.5-2.9,11.4-4.8,17.6-5.5l6.4-0.8V67.3H59.2l5.1,6.9l-3.4,24.5H65C71.6,98.8,78.2,97.2,84,94.1z    M94.4,75.5h5.5v5.5h-5.5V75.5z M78.6,75.5h5.5v5.5h-5.5V75.5z"/></g><text x="0" y="165" fill="#000000" font-size="5px" font-weight="bold" font-family="'Helvetica Neue', Helvetica, Arial-Unicode, Arial, Sans-serif">Created by Symbolon</text><text x="0" y="170" fill="#000000" font-size="5px" font-weight="bold" font-family="'Helvetica Neue', Helvetica, Arial-Unicode, Arial, Sans-serif">from the Noun Project</text></svg>