<?xml version="1.0" encoding="utf-8"?>
<!-- Generator: Adobe Illustrator 22.1.0, SVG Export Plug-In . SVG Version: 6.00 Build 0)  -->
<svg version="1.1"
	 id="Layer_1" xmlns:cc="http://creativecommons.org/ns#" xmlns:dc="http://purl.org/dc/elements/1.1/" xmlns:inkscape="http://www.inkscape.org/namespaces/inkscape" xmlns:rdf="http://www.w3.org/1999/02/22-rdf-syntax-ns#" xmlns:sodipodi="http://sodipodi.sourceforge.net/DTD/sodipodi-0.dtd" xmlns:svg="http://www.w3.org/2000/svg"
	 xmlns="http://www.w3.org/2000/svg" xmlns:xlink="http://www.w3.org/1999/xlink" x="0px" y="0px" viewBox="0 0 92 87.9"
	 style="enable-background:new 0 0 92 87.9;" xml:space="preserve">
<style type="text/css">
	.st0{fill:#FFFFFF;}
</style>
<rect x="4" y="36.8" class="st0" width="84" height="49.2"/>
<g transform="translate(0,-952.36218)">
	<path d="M24,952.4c-1.1,0-2,0.9-2,2v12.3c-3.4,0.9-6,4-6,7.7c0,4.4,3.6,8,8,8s8-3.6,8-8c0-3.7-2.6-6.8-6-7.7v-12.3
		C26,953.3,25.1,952.4,24,952.4z M68,952.4c-1.1,0-2,0.9-2,2v12.3c-3.4,0.9-6,4-6,7.7c0,4.4,3.6,8,8,8s8-3.6,8-8
		c0-3.7-2.6-6.8-6-7.7v-12.3C70,953.3,69.1,952.4,68,952.4z M10,958.4c-5.5,0-10,4.5-10,10v61.9c0,5.5,4.5,10,10,10h72
		c5.5,0,10-4.5,10-10v-61.9c0-5.5-4.5-10-10-10h-6c-1.1,0-2,0.9-2,2s1,2,2,2h6c3.4,0,6,2.7,6,6v18H4v-18c0-3.4,2.7-6,6-6h6
		c1.1,0,2-0.9,2-2s-1-2-2-2H10z M32,958.4c-1.1,0-2,0.9-2,2s0.9,2,2,2h28c1.1,0,2-0.9,2-2s-0.9-2-2-2H32z M24,970.4c2.2,0,4,1.8,4,4
		s-1.8,4-4,4s-4-1.8-4-4C20,972.1,21.8,970.4,24,970.4z M68,970.4c2.2,0,4,1.8,4,4s-1.8,4-4,4s-4-1.8-4-4
		C64,972.1,65.8,970.4,68,970.4z M4,990.4h84v40c0,3.4-2.7,6-6,6H10c-3.4,0-6-2.7-6-6V990.4z"/>
</g>
</svg>
