<svg xmlns:dc="http://purl.org/dc/elements/1.1/" xmlns:cc="http://creativecommons.org/ns#" xmlns:rdf="http://www.w3.org/1999/02/22-rdf-syntax-ns#" xmlns:svg="http://www.w3.org/2000/svg" xmlns="http://www.w3.org/2000/svg" xmlns:sodipodi="http://sodipodi.sourceforge.net/DTD/sodipodi-0.dtd" xmlns:inkscape="http://www.inkscape.org/namespaces/inkscape" version="1.1" x="0px" y="0px" viewBox="0 0 100 125"><g transform="translate(0,-952.36218)"><path style="text-indent:0;text-transform:none;direction:ltr;block-progression:tb;baseline-shift:baseline;color:#000000;enable-background:accumulate;" d="m 28.0313,958.36216 c -1.1047,0 -2,0.8954 -2,2 l 0,12.28125 c -3.4328,0.89897 -6,4.01733 -6,7.71875 0,4.3945 3.6054,8.00004 8,8.00004 4.3946,0 8,-3.60554 8,-8.00004 0,-3.70142 -2.5673,-6.81978 -6,-7.71875 l 0,-12.28125 c 0,-1.1046 -0.8954,-2 -2,-2 z m 44,0 c -1.1047,0 -2,0.8954 -2,2 l 0,12.28125 c -3.4328,0.89897 -6,4.01733 -6,7.71875 0,4.3945 3.6054,8.00004 8,8.00004 4.3946,0 8,-3.60554 8,-8.00004 0,-3.70142 -2.5673,-6.81978 -6,-7.71875 l 0,-12.28125 c 0,-1.1046 -0.8954,-2 -2,-2 z m -58,6 C 8.5102,964.36216 4,968.87231 4,974.39341 l 0,61.93749 c 0,5.521 4.5102,10.0313 10.0313,10.0313 l 71.9375,0 c 5.5211,0 10.0312,-4.5103 10.0312,-10.0313 l 0,-61.93749 c 0,-5.5211 -4.5101,-10.03125 -10.0312,-10.03125 l -5.9688,0 c -1.0566,-0.015 -2.0312,0.9433 -2.0312,2 0,1.0567 0.9746,2.0149 2.0312,2 l 5.9688,0 c 3.3704,0 6.0312,2.66075 6.0312,6.03125 l 0,17.96879 -84,0 0,-17.96879 c 0,-3.3705 2.6607,-6.03125 6.0313,-6.03125 l 5.9687,0 c 1.0566,0.015 2.0313,-0.9433 2.0313,-2 0,-1.0567 -0.9747,-2.0149 -2.0313,-2 z m 21.9687,0 c -1.1046,0 -2,0.8954 -2,2 0,1.1046 0.8954,2 2,2 l 28,0 c 1.1046,0 2,-0.8954 2,-2 0,-1.1046 -0.8954,-2 -2,-2 z m -7.9687,12 c 2.2328,0 4,1.7671 4,4 0,2.2328 -1.7672,4 -4,4 -2.2328,0 -4,-1.7672 -4,-4 0,-2.2329 1.7672,-4 4,-4 z m 44,0 c 2.2328,0 4,1.7671 4,4 0,2.2328 -1.7672,4 -4,4 -2.2328,0 -4,-1.7672 -4,-4 0,-2.2329 1.7672,-4 4,-4 z M 8,996.3622 l 84,0 0,39.9687 c 0,3.3705 -2.6608,6.0313 -6.0312,6.0313 l -71.9375,0 c -3.3706,0 -6.0313,-2.6608 -6.0313,-6.0313 z" fill="#000000" fill-opacity="1" stroke="none" marker="none" visibility="visible" display="inline" overflow="visible"/></g><text x="0" y="115" fill="#000000" font-size="5px" font-weight="bold" font-family="'Helvetica Neue', Helvetica, Arial-Unicode, Arial, Sans-serif">Created by iconsphere</text><text x="0" y="120" fill="#000000" font-size="5px" font-weight="bold" font-family="'Helvetica Neue', Helvetica, Arial-Unicode, Arial, Sans-serif">from the Noun Project</text></svg>