<svg xmlns:dc="http://purl.org/dc/elements/1.1/" xmlns:cc="http://creativecommons.org/ns#" xmlns:rdf="http://www.w3.org/1999/02/22-rdf-syntax-ns#" xmlns:svg="http://www.w3.org/2000/svg" xmlns="http://www.w3.org/2000/svg" xmlns:sodipodi="http://sodipodi.sourceforge.net/DTD/sodipodi-0.dtd" xmlns:inkscape="http://www.inkscape.org/namespaces/inkscape" version="1.1" x="0px" y="0px" viewBox="0 0 100 125"><g transform="translate(0,-952.36218)"><path style="color:#000000;enable-background:accumulate;" d="m 18.995813,982.3622 c 2,4.9814 6.5,7.9703 12.5,10.9591 -0.81871,4.8941 0.39455,9.1269 2.5,13.232 2.29186,0.9627 4.63048,1.5567 7.1875,1.5567 0.89804,0 1.90551,-0.084 2.96875,-0.2491 -5.85177,-4.2602 -6.65625,-11.1993 -6.65625,-16.5321 -8,-2.9889 -13.5,-3.9852 -18.5,-8.9666 z m 50.9375,10.9591 -21.8125,7.0052 c -2.33403,1.8876 -0.74357,5.2958 2.15625,4.9192 l 21.71875,-6.9429 c 1.93223,-2.0385 0.9947,-4.9262 -2.0625,-4.9815 z m 13.0625,3.9852 c -2.76142,0 -5,2.2303 -5,4.9814 0,2.7512 2.23858,4.9814 5,4.9814 2.76142,0 5,-2.2302 5,-4.9814 0,-2.7511 -2.23858,-4.9814 -5,-4.9814 z m -62.90625,2.8332 c -3.01675,5.9777 -8.05465,9.9628 -15.0937503,14.9443 7.0391003,-1.9926 11.0714103,-3.9852 15.0937503,-7.9703 20.11174,11.9554 29.15835,13.948 51.28125,4.9814 6.03352,9.9628 11.06354,10.9591 22.124997,9.9628 2.01117,-0.9962 2.01117,-3.9851 0,-4.9814 -10.055867,1.9926 -15.102647,-0.9963 -19.124997,-13.9479 -0.59139,-1.7776 -1.84484,-2.2212 -3,-1.9926 -10.05586,2.9888 -22.1428,8.9665 -30.1875,8.9665 -8.04469,0 -14.05464,-4.9814 -21.09375,-9.9628 z" fill="#000000" stroke="none" marker="none" visibility="visible" display="inline" overflow="visible"/></g><text x="0" y="115" fill="#000000" font-size="5px" font-weight="bold" font-family="'Helvetica Neue', Helvetica, Arial-Unicode, Arial, Sans-serif">Created by zidney</text><text x="0" y="120" fill="#000000" font-size="5px" font-weight="bold" font-family="'Helvetica Neue', Helvetica, Arial-Unicode, Arial, Sans-serif">from the Noun Project</text></svg>