<svg xmlns="http://www.w3.org/2000/svg" xmlns:xlink="http://www.w3.org/1999/xlink" version="1.1" x="0px" y="0px" viewBox="0 0 100 125" enable-background="new 0 0 100 100" xml:space="preserve"><path d="M53.9,71.1c-0.2-0.1-0.4-0.2-0.7-0.3c0,0-1.6,1.7-1.7,1.7c2.3,0.3,4.2,2.2,4.2,4.6c0,2.6-2.1,4.6-4.7,4.6s-4.7-2.1-4.7-4.6  c0-2.4,1.9-4.4,4.2-4.6c0,0-1.7-1.7-1.7-1.7c-2,0.7-3.7,2.3-4.3,4.5c-0.2,0.6-0.2,1.2-0.2,1.8c0,3.6,3,6.7,6.7,6.7  c2.5,0,4.9-1.7,6-3.9C58.7,76.7,57.1,72.7,53.9,71.1z"/><path d="M51.1,92.8c-6.1,0-12.8-4.3-18-10.3V95h36V82.9C64,88.8,57.4,92.8,51.1,92.8z"/><path d="M38.4,74c-1.5,0-5.3,0-5.3,0c-5,0-9.9,2.1-13.2,5.9c-2.8,3.2-4.7,7.6-3.7,11.9C16.3,92,17,95,17.3,95c0,0,6.1,0,6.1,0  c-0.7-1.2-1.3-2.6-1.6-4c-0.8-4.3,2.4-8.2,6-10c1.7-0.9,3.7-1.3,5.6-1.3h5L38.4,74z"/><path d="M69.3,39.9c-0.2-0.2-0.3-0.4-0.5-0.6c-0.8-0.7-1.9-0.8-2.9-0.9c-3.7-0.4-11.7-1.4-12-1.5c-1.1-0.1-2.3-0.2-3.5-0.2  c-1.1,0-2.3,0.1-3.4,0.2c-4,0.5-8.1,1-12.1,1.5c-1,0.1-2,0.1-2.8,0.7c-0.3,0.2-0.5,0.4-0.7,0.7H69.3z"/><path d="M44.6,46.2c-0.4-0.6-1.1-1-1.8-1H32.6c-1.2,0-2.2,1-2.2,2.2v6.2c0,1,0.6,1.8,1.6,2.1l6.9,2.2c1.1,0.4,2.4-0.3,2.8-1.3  l3.2-8.4C45.1,47.6,45.1,46.8,44.6,46.2z"/><path d="M72,41.6H30.1c-2,0-3.6,1.6-3.6,3.6v9.6c0,1.6,1,3,2.5,3.5c0,0,11.4,3.6,11.8,3.6c1.5,0,2.9-0.9,3.4-2.3l5.2-13.2  c0.3-0.7,0.9-1.1,1.6-1.1c0.7,0,1.3,0.4,1.6,1.1L58,59.5c0.5,1.4,1.9,2.4,3.4,2.4c0.4,0,11.8-3.6,11.8-3.6c1.5-0.5,2.5-1.9,2.5-3.5  v-9.6C75.7,43.2,74,41.6,72,41.6z M46.7,48.1l-3.6,9.5c-0.6,1.6-2.4,2.5-4.1,2l-7.8-2.5c-1.4-0.4-2.3-1.7-2.3-3.1v-7  c0-1.8,1.5-3.3,3.3-3.3h11.5C46,43.7,47.5,46,46.7,48.1z M73.3,54c0,1.4-0.9,2.7-2.3,3.2l-7.9,2.5c-1.7,0.5-3.5-0.3-4.1-2l-3.7-9.6  c-0.8-2.2,0.8-4.5,3.1-4.5H70c1.8,0,3.3,1.5,3.3,3.3V54z"/><path d="M63.3,58.1l6.9-2.2c0.9-0.3,1.6-1.2,1.6-2.1v-6.2c0-1.2-1-2.2-2.2-2.2H59.4c-0.7,0-1.4,0.4-1.8,1c-0.4,0.6-0.5,1.4-0.2,2.1  l3.2,8.4c0.3,0.9,1.2,1.4,2.1,1.4C62.8,58.2,63,58.1,63.3,58.1z"/><path d="M63,63.3c-0.5,0.2-1.1,0.3-1.6,0.3c-2.2,0-4.2-1.4-5-3.4L51,46.9l-5.2,13.2c-0.8,2-2.8,3.4-5,3.4c-0.5,0-1.1-0.1-1.6-0.3  l-7.4-2.4c0.1,0.8,0.4,1.6,1,2.1c0.9,0.9,2.3,1.1,3.5,1.2c2.8,0.3,9.7,1.2,10.1,1.6l3.9,4V56.2c0-0.5,0.4-0.8,0.8-0.8  c0.5,0,0.8,0.4,0.8,0.8v13.6c1.4-1.4,3.8-3.9,3.8-3.9c0.3-0.3,0.8-0.3,1.2-0.3c2.5-0.3,9.2-1.3,10.1-1.4c0.7-0.1,1.5-0.2,2.1-0.6  c0.9-0.6,1.5-1.6,1.6-2.7L63,63.3z"/><g><path d="M79.1,13.7c-4.4,0-6.5-1.7-8.4-3.2c-1.7-1.4-3.2-2.5-6.1-2.5c-2.9,0-4.4,1.2-6.1,2.5c-1.9,1.5-4.1,3.2-8.4,3.2   s-6.5-1.7-8.4-3.2c-1.7-1.4-3.2-2.5-6.1-2.5c-2.9,0-4.4,1.2-6.1,2.5c-1.9,1.5-4,3.2-8.4,3.2c-4.4,0-6.5-1.7-8.4-3.2   C11,9.1,9.5,7.9,6.7,7.9c-0.8,0-1.4-0.4-1.4-0.8s0.6-0.8,1.4-0.8c4.4,0,6.5,1.7,8.4,3.2c1.7,1.4,3.2,2.5,6.1,2.5   c2.9,0,4.4-1.2,6.1-2.5c1.9-1.5,4-3.2,8.4-3.2c4.4,0,6.5,1.7,8.4,3.2c1.7,1.4,3.2,2.5,6.1,2.5c2.9,0,4.4-1.2,6.1-2.5   c1.9-1.5,4.1-3.2,8.4-3.2c4.4,0,6.5,1.7,8.4,3.2c1.7,1.4,3.2,2.5,6.1,2.5c2.9,0,4.4-1.2,6.1-2.5c1.9-1.5,4.1-3.2,8.4-3.2   c0.8,0,1.4,0.4,1.4,0.8s-0.6,0.8-1.4,0.8c-2.9,0-4.4,1.2-6.1,2.5C85.6,12,83.5,13.7,79.1,13.7z"/></g><path d="M11,59c-2,0-3.7,1.7-3.7,3.7S9,66.3,11,66.3s3.7-1.7,3.7-3.7S13,59,11,59z"/><circle cx="20.4" cy="69.6" r="2.5"/><path d="M18.1,48.1c-2.4,0-4.4,2-4.4,4.4s2,4.4,4.4,4.4s4.4-2,4.4-4.4S20.6,48.1,18.1,48.1z"/><path d="M61.6,80.8l0-7.8l-2.8,0c0.6,1.2,1,2.6,1,4.1c0,1.3-0.3,2.6-0.8,3.7L61.6,80.8z"/><path d="M41,73.1v7.8l2.3,0c-0.5-1.1-0.9-2.4-0.9-3.8c0-1.5,0.4-2.8,1-4L41,73.1z"/><ellipse cx="51.1" cy="77.1" rx="2.6" ry="2.6"/><path d="M29.5,40c0.7-1.8,2.5-3,4.7-3.1l12.6-1.6c2.4-0.3,4.9-0.3,7.3,0l12.4,1.6c2.1,0,4,1.3,4.7,3H72c1.4,0,2.6,0.5,3.5,1.4  C73.8,29.3,63.5,20.2,51,20.2c-12.4,0-22.7,9.2-24.5,21.1C27.4,40.6,28.4,40.1,29.5,40z"/><path d="M73.6,59.9l-1.3,0.4v0.2c0,2.8-2.2,5.1-5,5.2l-10.6,1.5l-2,2.1c0.9,0.4,1.7,1,2.4,1.7l6.4,0l0,11.9l-6.1,0  c-1.6,1.8-3.9,2.9-6.4,2.9c-2.5,0-4.8-1.1-6.4-2.9l-6.2,0l0-1.3H35c4.8,5.4,10.8,9.1,16.1,9.1c11.8,0,24.8-15.7,24.8-29.4  c0-0.1,0-1.3,0-2.9C75.3,59.1,74.5,59.6,73.6,59.9z"/><path d="M38.4,71.1l6.5,0c0.7-0.7,1.6-1.3,2.5-1.8l-2-2.1l-10.3-1.5c-2.8,0-5-2.3-5-5.2v-0.1l-1.6-0.5c-0.9-0.3-1.6-0.8-2.2-1.4  c0,1.7,0,2.8,0,2.9c0,3.7,1,7.5,2.7,11.1c1.4-0.3,2.8-0.5,4.2-0.5h5.3L38.4,71.1z"/><text x="0" y="115" fill="#000000" font-size="5px" font-weight="bold" font-family="'Helvetica Neue', Helvetica, Arial-Unicode, Arial, Sans-serif">Created by Richard Cordero</text><text x="0" y="120" fill="#000000" font-size="5px" font-weight="bold" font-family="'Helvetica Neue', Helvetica, Arial-Unicode, Arial, Sans-serif">from the Noun Project</text></svg>