<?xml version="1.0" encoding="utf-8"?>
<!-- Generator: Adobe Illustrator 22.1.0, SVG Export Plug-In . SVG Version: 6.00 Build 0)  -->
<svg version="1.1" id="Layer_1" xmlns="http://www.w3.org/2000/svg" xmlns:xlink="http://www.w3.org/1999/xlink" x="0px" y="0px"
	 viewBox="0 0 76 89" style="enable-background:new 0 0 76 89;" xml:space="preserve">
<style type="text/css">
	.st0{fill:#EC1C24;}
</style>
<polygon class="st0" points="38,82 48,72.6 48,65.5 42.4,63.4 38,65 33,63.4 28.7,65.6 27.6,70.8 "/>
<g>
	<path d="M76,42.9L62.2,32H51.5c0.3-1.1,0.4-2.3,0.4-3.5c0-8-6.5-14.5-14.5-14.5S23,20.5,23,28.5c0,1.2,0.2,2.3,0.4,3.5h-9.1L0,43
		l0,0l0,0v12h6v34h3V55h58v34h3V55h6V42.9L76,42.9L76,42.9z M37.5,17C43.8,17,49,22.2,49,28.5c0,3.2-1.4,6.3-3.7,8.5H29.7
		c-2.4-2.2-3.7-5.3-3.7-8.5C26,22.2,31.1,17,37.5,17z M15.3,35h9.2c0.4,0.7,0.8,1.4,1.2,2h-8.3v3h11.1l0,0h17.7l0,0h12.1v-3H49
		c0.5-0.6,0.9-1.3,1.2-2h10.7L71,43H4.9L15.3,35z M73,52H3v-6h70V52z"/>
	<path d="M36,36h3v-2h1c2.2,0,4-1.7,4-3.7v-0.6c0-2.1-1.8-3.7-4-3.7h-1v-2h5v-3h-5v-2h-3v2h-1.2c-2.1,0-3.8,1.7-3.8,3.7v0.6
		c0,2.1,1.7,3.7,3.8,3.7H36v2h-5v3h5V36z M34.8,26c-0.5,0-0.8-0.3-0.8-0.7v-0.6c0-0.4,0.4-0.7,0.8-0.7H36v2L34.8,26L34.8,26z M39,29
		h1c0.6,0,1,0.4,1,0.7v0.6c0,0.3-0.4,0.7-1,0.7h-1V29z"/>
	<path d="M42.6,62c-2,0-3.7,0.5-4.9,1.5c-1.2-1-2.9-1.5-5-1.5c-4,0-7.1,3.2-7.1,7.3c0,3.2,3.5,7.7,10.8,13.8l1.2,1l1-0.9
		c0.3-0.3,0.7-0.6,1.2-1c4.8-4.1,10-8.8,10-12.9C49.8,65.2,46.7,62,42.6,62z M37.9,80c-0.1,0.1-0.1,0.1-0.2,0.2
		c-8.3-7.1-9-10.1-9-10.8c0-2.5,1.8-4.3,4.1-4.3c1.9,0,3.1,0.5,3.7,1.5l1.3,2l1.3-2c0.4-0.6,1.2-1.5,3.6-1.5c2.3,0,4.2,1.9,4.2,4.3
		C46.8,72.5,40.6,77.7,37.9,80z"/>
	<rect x="38" width="3" height="13"/>
	<rect x="33" y="5" width="3" height="6"/>
</g>
</svg>
