<svg xmlns="http://www.w3.org/2000/svg" xmlns:xlink="http://www.w3.org/1999/xlink" version="1.1" x="0px" y="0px" viewBox="0 0 100 125" enable-background="new 0 0 100 100" xml:space="preserve"><g><path d="M88.028,48.418L74.212,37.471H63.539c0.276-1.125,0.433-2.286,0.433-3.472c0-7.995-6.505-14.5-14.5-14.5   s-14.5,6.505-14.5,14.5c0,1.186,0.156,2.347,0.433,3.472h-9.117L12.012,48.489L12.02,48.5h-0.048v12h6v33.996h3V60.5h57.999v34h3   v-34h6.001v-12h-0.009L88.028,48.418z M49.472,22.499c6.341,0,11.5,5.159,11.5,11.5c0,3.243-1.356,6.303-3.735,8.482H41.707   c-2.379-2.18-3.735-5.239-3.735-8.482C37.972,27.658,43.131,22.499,49.472,22.499z M27.311,40.471h9.198   c0.351,0.701,0.76,1.372,1.222,2.011h-8.259v3h11.129l0.022,0.019H58.32l0.022-0.019h12.129v-3h-9.259   c0.462-0.639,0.871-1.31,1.222-2.011h10.732L83.301,48.5H16.908L27.311,40.471z M84.972,57.5h-70v-6h70V57.5z"/><path d="M47.972,41.5h3v-2h0.98c2.217,0,4.02-1.67,4.02-3.722v-0.557c0-2.052-1.803-3.722-4.02-3.722h-0.981v-2h5.001v-3h-5.001v-2   h-3v2h-1.162c-2.115,0-3.837,1.67-3.837,3.722v0.557c0,2.052,1.722,3.722,3.837,3.722h1.162l0.001,2h-5v3h5V41.5z M46.809,31.5   c-0.454,0-0.837-0.33-0.837-0.722v-0.557c0-0.392,0.383-0.722,0.837-0.722h1.162v2H46.809z M50.971,34.5h0.981   c0.601,0,1.02,0.38,1.02,0.722v0.557c0,0.342-0.419,0.722-1.02,0.722h-0.98L50.971,34.5z"/><path d="M54.634,67.5c-2.03,0-3.661,0.488-4.87,1.455c-1.224-0.967-2.885-1.455-4.963-1.455c-3.972,0-7.083,3.225-7.083,7.341   c0,3.17,3.542,7.675,10.829,13.771l1.192,1.003l0.969-0.854c0.309-0.271,0.701-0.604,1.151-0.984   c4.818-4.079,9.958-8.779,9.958-12.936C61.817,70.725,58.662,67.5,54.634,67.5z M49.921,85.486   c-0.072,0.062-0.144,0.121-0.213,0.181c-8.327-7.106-8.99-10.072-8.99-10.826c0-2.475,1.755-4.341,4.083-4.341   c1.854,0,3.066,0.483,3.704,1.479l1.263,1.97l1.263-1.97c0.407-0.635,1.224-1.479,3.604-1.479c2.346,0,4.184,1.906,4.184,4.341   C58.817,77.954,52.583,83.232,49.921,85.486z"/><rect x="49.971" y="5.5" width="3" height="13"/><rect x="44.973" y="10.5" width="3" height="6"/></g><text x="0" y="115" fill="#000000" font-size="5px" font-weight="bold" font-family="'Helvetica Neue', Helvetica, Arial-Unicode, Arial, Sans-serif">Created by Nikita Kozin</text><text x="0" y="120" fill="#000000" font-size="5px" font-weight="bold" font-family="'Helvetica Neue', Helvetica, Arial-Unicode, Arial, Sans-serif">from the Noun Project</text></svg>