<?xml version="1.0" encoding="utf-8"?>
<!-- Generator: Adobe Illustrator 22.1.0, SVG Export Plug-In . SVG Version: 6.00 Build 0)  -->
<svg version="1.1"
	 id="Layer_1" xmlns:cc="http://creativecommons.org/ns#" xmlns:dc="http://purl.org/dc/elements/1.1/" xmlns:inkscape="http://www.inkscape.org/namespaces/inkscape" xmlns:rdf="http://www.w3.org/1999/02/22-rdf-syntax-ns#" xmlns:sodipodi="http://sodipodi.sourceforge.net/DTD/sodipodi-0.dtd" xmlns:svg="http://www.w3.org/2000/svg"
	 xmlns="http://www.w3.org/2000/svg" xmlns:xlink="http://www.w3.org/1999/xlink" x="0px" y="0px" viewBox="0 0 90 40.1"
	 style="enable-background:new 0 0 90 40.1;" xml:space="preserve">
<style type="text/css">
	.st0{fill:#FFFFFF;}
</style>
<g transform="translate(0,-952.36218)">
	<path class="st0" d="M57.5,961.5c0,5.3-0.8,12.3-6.7,16.5c1.1,0.2,2.1,0.2,3,0.2c2.6,0,4.9-0.6,7.2-1.6c2.1-4.1,3.3-8.3,2.5-13.2
		c6-3,10.5-6,12.5-11C71,957.5,65.5,958.5,57.5,961.5z M23,968.5l21.7,6.9c2.9,0.4,4.5-3,2.2-4.9l-21.8-7
		C22,963.6,21.1,966.5,23,968.5z M7,972.5c0,2.8,2.2,5,5,5s5-2.2,5-5s-2.2-5-5-5S7,969.7,7,972.5z M53.8,980.3c-8,0-20.1-6-30.2-9
		c-1.2-0.2-2.4,0.2-3,2c-4,13-9.1,15.9-19.1,13.9c-2,1-2,4,0,5c11.1,1,16.1,0,22.1-10c22.1,9,31.2,7,51.3-5c4,4,8.1,6,15.1,8
		c-7-5-12.1-9-15.1-14.9C67.9,975.3,61.9,980.3,53.8,980.3z"/>
</g>
</svg>
