<?xml version="1.0" encoding="utf-8"?>
<!-- Generator: Adobe Illustrator 22.1.0, SVG Export Plug-In . SVG Version: 6.00 Build 0)  -->
<svg version="1.1" id="Layer_1" xmlns="http://www.w3.org/2000/svg" xmlns:xlink="http://www.w3.org/1999/xlink" x="0px" y="0px"
	 viewBox="0 0 75 70.2" style="enable-background:new 0 0 75 70.2;" xml:space="preserve">
<style type="text/css">
	.st0{fill:#FFFFFF;}
</style>
<polygon class="st0" points="31.4,39.9 22.8,40.6 18.7,44.5 17,53.1 23.8,54 30.8,49.3 32.1,43.1 "/>
<polygon class="st0" points="39.4,18.9 41,27.6 45.4,31.5 52.4,32.4 55.8,30.9 53,22.1 47.6,18.9 "/>
<path class="st0" d="M71.5,8.3H74c0.6,0,1-0.4,1-1s-0.4-1-1-1h-2.6C71,5,70,3.9,68.7,3.6V1c0-0.6-0.4-1-1-1s-1,0.4-1,1v2.6
	C65.4,4,64.3,5,64,6.3H51.3c-0.4-1.3-1.4-2.4-2.7-2.7V1c0-0.6-0.4-1-1-1s-1,0.4-1,1v2.6C45.3,4,44.2,5,43.9,6.3H31.2
	c-0.4-1.3-1.4-2.4-2.7-2.7V1c0-0.6-0.4-1-1-1s-1,0.4-1,1v2.6C25.2,4,24.1,5,23.8,6.3H11C10.6,5,9.6,3.9,8.3,3.6V1c0-0.6-0.4-1-1-1
	s-1,0.4-1,1v2.6C5,4,3.9,5,3.6,6.3H1c-0.6,0-1,0.4-1,1s0.4,1,1,1h2.6C4,9.6,5,10.7,6.3,11v11C5,22.3,4,23.4,3.6,24.7H1
	c-0.6,0-1,0.4-1,1s0.4,1,1,1h2.6C4,28,5,29.1,6.3,29.4v11c-1.3,0.4-2.4,1.4-2.7,2.7H1c-0.6,0-1,0.4-1,1s0.4,1,1,1h2.6
	C4,46.4,5,47.5,6.3,47.8v11c-1.3,0.4-2.4,1.4-2.7,2.7H1c-0.6,0-1,0.4-1,1s0.4,1,1,1h2.6C4,64.8,5,65.9,6.3,66.2v3c0,0.6,0.4,1,1,1
	s1-0.4,1-1v-3c1.3-0.4,2.4-1.4,2.7-2.7h12.7c0.4,1.3,1.4,2.4,2.7,2.7v3c0,0.6,0.4,1,1,1s1-0.4,1-1v-3c1.3-0.4,2.4-1.4,2.7-2.7h12.7
	c0.4,1.3,1.4,2.4,2.7,2.7v3c0,0.6,0.4,1,1,1s1-0.4,1-1v-3c1.3-0.4,2.4-1.4,2.7-2.7H64c0.4,1.3,1.4,2.4,2.7,2.7v3c0,0.6,0.4,1,1,1
	s1-0.4,1-1v-3c1.3-0.4,2.4-1.4,2.7-2.7H74c0.6,0,1-0.4,1-1s-0.4-1-1-1h-2.6c-0.4-1.3-1.4-2.4-2.7-2.7v-11c1.3-0.4,2.4-1.4,2.7-2.7
	H74c0.6,0,1-0.4,1-1s-0.4-1-1-1h-2.6c-0.4-1.3-1.4-2.4-2.7-2.7v-11c1.3-0.4,2.4-1.4,2.7-2.7H74c0.6,0,1-0.4,1-1s-0.4-1-1-1h-2.6
	C71,23.4,70,22.3,68.7,22V11C70.1,10.6,71.1,9.6,71.5,8.3z M64,24.7h-8.9c-0.5-1.6-1.3-3.2-2.7-4.4c-1-0.9-2.3-1.6-3.8-2V11
	c1.3-0.4,2.4-1.4,2.7-2.7H64c0.4,1.3,1.4,2.4,2.7,2.7v11C65.4,22.3,64.4,23.4,64,24.7z M64,43.1H51.3c-0.4-1.3-1.4-2.4-2.7-2.7v-6.9
	c1.8,0.1,3.6-0.1,5.3-0.3c0,2,0.2,5.5,1.4,6.7c0.4,0.4,0.9,0.6,1.4,0.6h0.1c1.9-0.1,4-2.5,4.4-3s2.5-3,2.2-4.9
	c-0.1-0.6-0.3-1.1-0.8-1.4c-1.4-1-4.8-0.7-6.8-0.3c0-1.3-0.1-2.7-0.3-4.1H64c0.4,1.3,1.4,2.4,2.7,2.7v11
	C65.4,40.8,64.4,41.8,64,43.1z M64,61.6H51.3c-0.4-1.3-1.4-2.4-2.7-2.7v-11c1.3-0.4,2.4-1.4,2.7-2.7H64c0.4,1.3,1.4,2.4,2.7,2.7v11
	C65.4,59.2,64.4,60.2,64,61.6z M43.9,61.6H31.2c-0.4-1.3-1.4-2.4-2.7-2.7v-6c0.6-0.4,1.1-0.7,1.5-1.2c1.8-1.8,2.5-4.2,2.7-6.6h11.2
	c0.3,1.3,1.4,2.4,2.7,2.8v11C45.3,59.2,44.3,60.2,43.9,61.6z M23.8,61.6H11c-0.4-1.3-1.4-2.4-2.7-2.7v-11c1.3-0.4,2.4-1.4,2.7-2.7
	h6.3c-0.9,2.3-1.3,5.3-1.3,9c0,0.5,0.4,1,1,1c0.5,0,1.1,0,1.6,0c3.3,0,5.9-0.4,8-1.2v5C25.1,59.2,24.1,60.2,23.8,61.6z M11,26.7
	h12.7c0.4,1.3,1.4,2.4,2.7,2.7v9.3c-2.4,0.1-4.7,0.7-6.6,2.5c-0.6,0.6-1.1,1.2-1.6,2H11c-0.4-1.3-1.4-2.4-2.7-2.7v-11
	C9.6,29.1,10.7,28,11,26.7z M11,8.3h12.7c0.4,1.3,1.4,2.4,2.7,2.7v11c-1.3,0.4-2.4,1.4-2.7,2.7H11c-0.4-1.3-1.4-2.4-2.7-2.7V11
	C9.6,10.6,10.7,9.6,11,8.3z M31.2,8.3h12.7c0.4,1.3,1.4,2.4,2.7,2.7v6.9c-2.1-0.3-4.6-0.4-7.5-0.1c-0.5,0.1-0.9,0.5-0.9,1.1
	c0.2,2.2,0.4,4.2,0.9,5.9h-8c-0.4-1.3-1.4-2.4-2.7-2.7v-11C29.8,10.6,30.8,9.6,31.2,8.3z M53.9,31.1c-3.5,0.5-7.1,0.9-9.7-1.2
	c-2.2-1.8-3.5-5.1-3.9-10.3c5.2-0.4,8.7,0.3,10.8,2.1C53.6,24,53.8,27.6,53.9,31.1z M47.6,46c-1,0-1.9-0.8-1.9-1.9s0.8-1.9,1.9-1.9
	s1.9,0.8,1.9,1.9S48.6,46,47.6,46z M46.6,40.4c-1.3,0.4-2.3,1.4-2.7,2.7H32.8c0-0.7,0-1.4,0-2.1c2,0.2,5.5,0.4,6.8-0.7
	c0.4-0.4,0.7-0.9,0.7-1.5c0.1-1.9-2.1-4.2-2.5-4.7s-2.7-2.7-4.6-2.7l0,0c-0.6,0-1.1,0.2-1.5,0.7c-1.2,1.3-1.1,4.7-1,6.8
	c-0.8-0.2-1.5-0.2-2.2-0.2v-9.3c1.3-0.4,2.4-1.4,2.7-2.7h8.6l0,0c0.8,2.1,1.9,3.7,3.2,4.8c1.1,0.9,2.3,1.4,3.6,1.7
	C46.6,33.2,46.6,40.4,46.6,40.4z M18,53.1c0.1-5.2,1.2-8.6,3.2-10.5c2.4-2.3,6-2.1,9.6-1.8c0.1,3.5,0.2,7.1-2.2,9.5
	C26.6,52.3,23.1,53.2,18,53.1z M27.5,23.8c1,0,1.9,0.8,1.9,1.9s-0.8,1.9-1.9,1.9s-1.9-0.9-1.9-1.9S26.4,23.8,27.5,23.8z M33.1,33.4
	c0.4-0.1,1.9,0.8,3.2,2.1c1.2,1.3,2.1,2.9,2,3.3c-0.6,0.5-3.2,0.5-5.6,0.2C32.5,36.6,32.6,34,33.1,33.4z M59.7,36.1
	c-1.2,1.4-2.6,2.4-3,2.3c-0.6-0.5-0.8-3.2-0.8-5.6c2.4-0.4,5-0.6,5.6-0.1C61.7,33.1,60.9,34.7,59.7,36.1z M67.7,5.4
	c1,0,1.9,0.8,1.9,1.9s-0.8,1.9-1.9,1.9s-1.9-0.8-1.9-1.9S66.7,5.4,67.7,5.4z M47.6,5.4c1,0,1.9,0.8,1.9,1.9s-0.8,1.9-1.9,1.9
	s-1.9-0.8-1.9-1.9S46.6,5.4,47.6,5.4z M27.5,5.4c1,0,1.9,0.8,1.9,1.9s-0.8,1.9-1.9,1.9s-1.9-0.8-1.9-1.9S26.4,5.4,27.5,5.4z
	 M5.5,7.3c0-1,0.8-1.9,1.9-1.9s1.9,0.8,1.9,1.9S8.5,9.2,7.4,9.2S5.5,8.3,5.5,7.3z M5.5,25.7c0-1,0.8-1.9,1.9-1.9s1.9,0.8,1.9,1.9
	s-0.8,1.9-1.9,1.9S5.5,26.7,5.5,25.7z M5.5,44.1c0-1,0.8-1.9,1.9-1.9s1.9,0.8,1.9,1.9S8.5,46,7.4,46S5.5,45.2,5.5,44.1z M7.3,64.4
	c-1,0-1.9-0.8-1.9-1.9s0.8-1.9,1.9-1.9s1.9,0.8,1.9,1.9S8.4,64.4,7.3,64.4z M27.5,64.4c-1,0-1.9-0.8-1.9-1.9s0.8-1.9,1.9-1.9
	s1.9,0.8,1.9,1.9S28.5,64.4,27.5,64.4z M47.6,64.4c-1,0-1.9-0.8-1.9-1.9s0.8-1.9,1.9-1.9s1.9,0.8,1.9,1.9S48.6,64.4,47.6,64.4z
	 M69.6,62.6c0,1-0.8,1.9-1.9,1.9s-1.9-0.8-1.9-1.9s0.8-1.9,1.9-1.9S69.6,61.5,69.6,62.6z M69.6,44.1c0,1-0.8,1.9-1.9,1.9
	s-1.9-0.8-1.9-1.9s0.8-1.9,1.9-1.9S69.6,43.1,69.6,44.1z M69.6,25.7c0,1-0.8,1.9-1.9,1.9s-1.8-0.9-1.8-1.9s0.8-1.9,1.9-1.9
	S69.6,24.7,69.6,25.7z"/>
<ellipse cx="46.9" cy="22.7" rx="1.1" ry="1.1"/>
<ellipse cx="21.7" cy="46.9" rx="1.1" ry="1.1"/>
</svg>
