<svg xmlns="http://www.w3.org/2000/svg" xmlns:xlink="http://www.w3.org/1999/xlink" version="1.1" x="0px" y="0px" viewBox="0 0 100 125" style="enable-background:new 0 0 100 100;" xml:space="preserve"><style type="text/css">
	.st0{fill:none;stroke:#000000;stroke-width:2;stroke-linecap:round;stroke-linejoin:round;stroke-miterlimit:10;}
	.st1{fill:none;stroke:#000000;stroke-width:2;stroke-miterlimit:10;}
</style><path d="M83.5,24.6H86c0.6,0,1-0.4,1-1s-0.4-1-1-1h-2.6c-0.4-1.3-1.4-2.4-2.7-2.7v-2.6c0-0.6-0.4-1-1-1s-1,0.4-1,1v2.6  c-1.3,0.4-2.4,1.4-2.7,2.7H63.3c-0.4-1.3-1.4-2.4-2.7-2.7v-2.6c0-0.6-0.4-1-1-1s-1,0.4-1,1v2.6c-1.3,0.4-2.4,1.4-2.7,2.7H43.2  c-0.4-1.3-1.4-2.4-2.7-2.7v-2.6c0-0.6-0.4-1-1-1s-1,0.4-1,1v2.6c-1.3,0.4-2.4,1.4-2.7,2.7H23c-0.4-1.3-1.4-2.4-2.7-2.7v-2.6  c0-0.6-0.4-1-1-1s-1,0.4-1,1v2.6c-1.3,0.4-2.4,1.4-2.7,2.7H13c-0.6,0-1,0.4-1,1s0.4,1,1,1h2.6c0.4,1.3,1.4,2.4,2.7,2.7v11  C17,38.6,16,39.7,15.6,41H13c-0.6,0-1,0.4-1,1s0.4,1,1,1h2.6c0.4,1.3,1.4,2.4,2.7,2.7v11c-1.3,0.4-2.4,1.4-2.7,2.7H13  c-0.6,0-1,0.4-1,1s0.4,1,1,1h2.6c0.4,1.3,1.4,2.4,2.7,2.7v11c-1.3,0.4-2.4,1.4-2.7,2.7H13c-0.6,0-1,0.4-1,1s0.4,1,1,1h2.6  c0.4,1.3,1.4,2.4,2.7,2.7v3c0,0.6,0.4,1,1,1s1-0.4,1-1v-3c1.3-0.4,2.4-1.4,2.7-2.7h12.7c0.4,1.3,1.4,2.4,2.7,2.7v3c0,0.6,0.4,1,1,1  s1-0.4,1-1v-3c1.3-0.4,2.4-1.4,2.7-2.7h12.7c0.4,1.3,1.4,2.4,2.7,2.7v3c0,0.6,0.4,1,1,1s1-0.4,1-1v-3c1.3-0.4,2.4-1.4,2.7-2.7H76  c0.4,1.3,1.4,2.4,2.7,2.7v3c0,0.6,0.4,1,1,1s1-0.4,1-1v-3c1.3-0.4,2.4-1.4,2.7-2.7H86c0.6,0,1-0.4,1-1s-0.4-1-1-1h-2.6  c-0.4-1.3-1.4-2.4-2.7-2.7v-11c1.3-0.4,2.4-1.4,2.7-2.7H86c0.6,0,1-0.4,1-1s-0.4-1-1-1h-2.6c-0.4-1.3-1.4-2.4-2.7-2.7v-11  c1.3-0.4,2.4-1.4,2.7-2.7H86c0.6,0,1-0.4,1-1s-0.4-1-1-1h-2.6c-0.4-1.3-1.4-2.4-2.7-2.7v-11C82.1,26.9,83.1,25.9,83.5,24.6z M76,41  h-8.9c-0.5-1.6-1.3-3.2-2.7-4.4c-1-0.9-2.3-1.6-3.8-2v-7.3c1.3-0.4,2.4-1.4,2.7-2.7H76c0.4,1.3,1.4,2.4,2.7,2.7v11  C77.4,38.6,76.4,39.7,76,41z M76,59.4H63.3c-0.4-1.3-1.4-2.4-2.7-2.7v-6.9c1.8,0.1,3.6-0.1,5.3-0.3c0,2,0.2,5.5,1.4,6.7  c0.4,0.4,0.9,0.6,1.4,0.6c0,0,0.1,0,0.1,0c1.9-0.1,4-2.5,4.4-3s2.5-3,2.2-4.9c-0.1-0.6-0.3-1.1-0.8-1.4c-1.4-1-4.8-0.7-6.8-0.3  c0-1.3-0.1-2.7-0.3-4.1H76c0.4,1.3,1.4,2.4,2.7,2.7v11C77.4,57.1,76.4,58.1,76,59.4z M76,77.9H63.3c-0.4-1.3-1.4-2.4-2.7-2.7v-11  c1.3-0.4,2.4-1.4,2.7-2.7H76c0.4,1.3,1.4,2.4,2.7,2.7v11C77.4,75.5,76.4,76.5,76,77.9z M55.9,77.9H43.2c-0.4-1.3-1.4-2.4-2.7-2.7v-6  c0.6-0.4,1.1-0.7,1.5-1.2c1.8-1.8,2.5-4.2,2.7-6.6h11.2c0.3,1.3,1.4,2.4,2.7,2.8v11C57.3,75.5,56.3,76.5,55.9,77.9z M35.8,77.9H23  c-0.4-1.3-1.4-2.4-2.7-2.7v-11c1.3-0.4,2.4-1.4,2.7-2.7h6.3c-0.9,2.3-1.3,5.3-1.3,9c0,0.5,0.4,1,1,1c0.5,0,1.1,0,1.6,0  c3.3,0,5.9-0.4,8-1.2v5C37.1,75.5,36.1,76.5,35.8,77.9z M23,43h12.7c0.4,1.3,1.4,2.4,2.7,2.7V55c-2.4,0.1-4.7,0.7-6.6,2.5  c-0.6,0.6-1.1,1.2-1.6,2H23c-0.4-1.3-1.4-2.4-2.7-2.7v-11C21.6,45.4,22.7,44.3,23,43z M23,24.6h12.7c0.4,1.3,1.4,2.4,2.7,2.7v11  c-1.3,0.4-2.4,1.4-2.7,2.7H23c-0.4-1.3-1.4-2.4-2.7-2.7v-11C21.6,26.9,22.7,25.9,23,24.6z M43.2,24.6h12.7c0.4,1.3,1.4,2.4,2.7,2.7  v6.9c-2.1-0.3-4.6-0.4-7.5-0.1c-0.5,0.1-0.9,0.5-0.9,1.1c0.2,2.2,0.4,4.2,0.9,5.9h-8c-0.4-1.3-1.4-2.4-2.7-2.7v-11  C41.8,26.9,42.8,25.9,43.2,24.6z M65.9,47.4c-3.5,0.5-7.1,0.9-9.7-1.2c-2.2-1.8-3.5-5.1-3.9-10.3c5.2-0.4,8.7,0.3,10.8,2.1  C65.6,40.3,65.8,43.9,65.9,47.4z M59.6,62.3c-1,0-1.9-0.8-1.9-1.9s0.8-1.9,1.9-1.9s1.9,0.8,1.9,1.9S60.6,62.3,59.6,62.3z M58.6,56.7  c-1.3,0.4-2.3,1.4-2.7,2.7H44.8c0-0.7,0-1.4,0-2.1c2,0.2,5.5,0.4,6.8-0.7c0.4-0.4,0.7-0.9,0.7-1.5c0.1-1.9-2.1-4.2-2.5-4.7  c-0.4-0.5-2.7-2.7-4.6-2.7c0,0,0,0,0,0c-0.6,0-1.1,0.2-1.5,0.7c-1.2,1.3-1.1,4.7-1,6.8C41.9,55,41.2,55,40.5,55v-9.3  c1.3-0.4,2.4-1.4,2.7-2.7h8.6c0,0,0,0,0,0c0.8,2.1,1.9,3.7,3.2,4.8c1.1,0.9,2.3,1.4,3.6,1.7V56.7z M30,69.4  c0.1-5.2,1.2-8.6,3.2-10.5c2.4-2.3,6-2.1,9.6-1.8c0.1,3.5,0.2,7.1-2.2,9.5C38.6,68.6,35.1,69.5,30,69.4z M39.5,40.1  c1,0,1.9,0.8,1.9,1.9s-0.8,1.9-1.9,1.9S37.6,43,37.6,42S38.4,40.1,39.5,40.1z M45.1,49.7c0.4-0.1,1.9,0.8,3.2,2.1  c1.2,1.3,2.1,2.9,2,3.3c-0.6,0.5-3.2,0.5-5.6,0.2C44.5,52.9,44.6,50.3,45.1,49.7z M71.7,52.4c-1.2,1.4-2.6,2.4-3,2.3  c-0.6-0.5-0.8-3.2-0.8-5.6c2.4-0.4,5-0.6,5.6-0.1C73.7,49.4,72.9,51,71.7,52.4z M79.7,21.7c1,0,1.9,0.8,1.9,1.9s-0.8,1.9-1.9,1.9  s-1.9-0.8-1.9-1.9S78.7,21.7,79.7,21.7z M59.6,21.7c1,0,1.9,0.8,1.9,1.9s-0.8,1.9-1.9,1.9s-1.9-0.8-1.9-1.9S58.6,21.7,59.6,21.7z   M39.5,21.7c1,0,1.9,0.8,1.9,1.9s-0.8,1.9-1.9,1.9s-1.9-0.8-1.9-1.9S38.4,21.7,39.5,21.7z M17.5,23.6c0-1,0.8-1.9,1.9-1.9  s1.9,0.8,1.9,1.9s-0.8,1.9-1.9,1.9S17.5,24.6,17.5,23.6z M17.5,42c0-1,0.8-1.9,1.9-1.9s1.9,0.8,1.9,1.9s-0.8,1.9-1.9,1.9  S17.5,43,17.5,42z M17.5,60.4c0-1,0.8-1.9,1.9-1.9s1.9,0.8,1.9,1.9s-0.8,1.9-1.9,1.9S17.5,61.5,17.5,60.4z M19.3,80.7  c-1,0-1.9-0.8-1.9-1.9s0.8-1.9,1.9-1.9s1.9,0.8,1.9,1.9S20.4,80.7,19.3,80.7z M39.5,80.7c-1,0-1.9-0.8-1.9-1.9s0.8-1.9,1.9-1.9  s1.9,0.8,1.9,1.9S40.5,80.7,39.5,80.7z M59.6,80.7c-1,0-1.9-0.8-1.9-1.9s0.8-1.9,1.9-1.9s1.9,0.8,1.9,1.9S60.6,80.7,59.6,80.7z   M81.6,78.9c0,1-0.8,1.9-1.9,1.9s-1.9-0.8-1.9-1.9s0.8-1.9,1.9-1.9S81.6,77.8,81.6,78.9z M81.6,60.4c0,1-0.8,1.9-1.9,1.9  s-1.9-0.8-1.9-1.9s0.8-1.9,1.9-1.9S81.6,59.4,81.6,60.4z M81.6,42c0,1-0.8,1.9-1.9,1.9S77.9,43,77.9,42s0.8-1.9,1.9-1.9  S81.6,41,81.6,42z"/><ellipse transform="matrix(0.9961 -8.781684e-02 8.781684e-02 0.9961 -3.1993 5.3204)" cx="58.9" cy="39" rx="1.1" ry="1.1"/><ellipse transform="matrix(1.517078e-02 -0.9999 0.9999 1.517078e-02 -30.0526 95.9435)" cx="33.7" cy="63.2" rx="1.1" ry="1.1"/><text x="0" y="115" fill="#000000" font-size="5px" font-weight="bold" font-family="'Helvetica Neue', Helvetica, Arial-Unicode, Arial, Sans-serif">Created by Made by Made</text><text x="0" y="120" fill="#000000" font-size="5px" font-weight="bold" font-family="'Helvetica Neue', Helvetica, Arial-Unicode, Arial, Sans-serif">from the Noun Project</text></svg>