<svg xmlns="http://www.w3.org/2000/svg" xmlns:xlink="http://www.w3.org/1999/xlink" version="1.1" x="0px" y="0px" viewBox="0 0 357.318 373.7525" style="enable-background:new 0 0 357.318 299.002;" xml:space="preserve"><g><path d="M92.792,159.496c1.52,1.821,3.782,2.87,6.14,2.871c0.167,0,0.333-0.006,0.501-0.017c2.534-0.16,4.857-1.526,6.23-3.664   l21.5-33.5c2.022-3.151,1.545-7.183-0.909-9.792l27.988-41.747l-3.322-2.228l-28.049,41.837c-3.369-1.083-7.172,0.171-9.173,3.291   l-15.617,24.329l-21.014-25.141c-1.388-1.66-3.306-2.611-5.3-2.821c-0.767-0.254-1.584-0.397-2.437-0.397H30.696   c-0.08,0-0.158,0.01-0.237,0.012c-1.787,0.008-4.853,0.377-8.345,2.137c-5.378,2.669-11.179,8.504-15.235,18.841   C2.771,143.886,0.016,158.893,0,181.552c0.002,5.858,0.189,12.226,0.6,19.16c0.248,4.251,3.774,7.532,7.979,7.532   c0.157,0,0.316-0.005,0.475-0.014c4.409-0.26,7.775-4.045,7.517-8.457c-0.392-6.65-0.571-12.709-0.568-18.222   c-0.036-24.223,3.496-37.826,6.965-44.924v33.071v18.939v98c0,6.83,5.537,12.363,12.363,12.363c6.828,0,12.365-5.533,12.365-12.363   v-90.271h4.635v90.271c0,6.83,5.537,12.363,12.363,12.363c6.828,0,12.365-5.533,12.365-12.363v-98v-18.939v-29.025L92.792,159.496z   "/><circle cx="50.013" cy="84.318" r="22.5"/><polygon points="321.578,0 57.577,0 57.577,50.472 62.578,50.472 62.578,4.996 316.577,4.996 316.577,143.998 131.181,143.998    131.181,149 321.578,149  "/><circle cx="138.756" cy="214.393" r="22.5"/><circle cx="223.256" cy="214.393" r="22.5"/><path d="M111.711,266.708v30.326h54.092v-30.28c0.593,1.215,1.191,2.609,1.781,4.236c2.061,5.714,3.879,14.121,4.705,26.044h17.421   c1.065-15.338,3.802-24.804,6.501-30.327v30.327h54.092v-30.282c0.593,1.217,1.191,2.611,1.781,4.238   c2.061,5.714,3.879,14.121,4.705,26.044h17.421c1.065-15.338,3.802-24.804,6.501-30.327v30.327h54.092v-30.282   c0.593,1.217,1.191,2.611,1.781,4.238c2.061,5.714,3.879,14.121,4.705,26.044h16.029c-1.334-21.205-5.564-34.045-10.99-42.337   c-3.285-4.985-7.127-8.183-10.679-9.954c-3.416-1.725-6.421-2.112-8.224-2.136c-0.117-0.004-0.232-0.018-0.352-0.018h-38.635   c-0.134,0-0.264,0.014-0.396,0.02c-1.807,0.026-4.791,0.421-8.183,2.133c-5.007,2.48-10.372,7.708-14.363,16.751   c-1.139-2.559-2.369-4.811-3.669-6.797c-3.285-4.985-7.127-8.183-10.679-9.954c-3.416-1.725-6.421-2.112-8.224-2.136   c-0.117-0.004-0.232-0.018-0.352-0.018h-38.635c-0.134,0-0.264,0.014-0.396,0.02c-1.807,0.026-4.791,0.421-8.183,2.133   c-5.007,2.48-10.372,7.708-14.363,16.751c-1.139-2.559-2.369-4.811-3.669-6.797c-3.285-4.985-7.127-8.183-10.679-9.954   c-3.416-1.725-6.421-2.112-8.224-2.136c-0.117-0.004-0.232-0.018-0.352-0.018h-38.635c-0.135,0-0.266,0.014-0.397,0.02   c-1.807,0.026-4.79,0.422-8.182,2.133c-5.381,2.665-11.179,8.5-15.237,18.841c-3.152,7.964-5.503,18.67-6.435,33.45h16.022   C106.275,281.697,109.012,272.232,111.711,266.708z"/><circle cx="307.756" cy="214.393" r="22.5"/></g><text x="0" y="314.002" fill="#000000" font-size="5px" font-weight="bold" font-family="'Helvetica Neue', Helvetica, Arial-Unicode, Arial, Sans-serif">Created by Gan Khoon Lay</text><text x="0" y="319.002" fill="#000000" font-size="5px" font-weight="bold" font-family="'Helvetica Neue', Helvetica, Arial-Unicode, Arial, Sans-serif">from the Noun Project</text></svg>