<?xml version="1.0" encoding="utf-8"?>
<!-- Generator: Adobe Illustrator 22.1.0, SVG Export Plug-In . SVG Version: 6.00 Build 0)  -->
<svg version="1.1" id="Layer_1" xmlns="http://www.w3.org/2000/svg" xmlns:xlink="http://www.w3.org/1999/xlink" x="0px" y="0px"
	 viewBox="0 0 55.3 35.7" style="enable-background:new 0 0 55.3 35.7;" xml:space="preserve">
<style type="text/css">
	.st0{fill:#EC1C24;}
</style>
<polygon class="st0" points="19.7,5.1 19.7,16.6 24.2,23 31.7,23 37.1,15.6 36.7,5.1 32.1,5.6 29.9,8.5 28.4,9.1 25.6,8.7 23.2,5.8 
	"/>
<g>
	<circle cx="27.6" cy="19" r="2.4"/>
	<path d="M54.5,19.4L54.5,19.4l-5-10.8c-1.8-3.9-6-6.2-10.4-5.6c-0.6,0.1-1.2,0.2-1.6,0.4C36.1,4.1,33.3,4.6,31,5c0,0,0,0,0,0.1
		c0,1.9-1.5,3.3-3.3,3.3c-1.9,0-3.3-1.5-3.3-3.3c0,0,0,0,0-0.1c-2.3-0.4-5.2-0.9-6.5-1.6c-0.4-0.2-1-0.4-1.6-0.4
		C11.9,2.4,7.8,4.8,5.9,8.6l-4.2,9c-1,1.8-1.7,3.9-1.7,6.1c0,6.6,5.4,12,12,12c6.2,0,11.3-4.7,11.9-10.8c2.5-0.3,5-0.3,7.5,0
		c0.6,6,5.7,10.8,11.9,10.8c6.6,0,12-5.4,12-12C55.2,22.1,55,20.7,54.5,19.4z M11.9,31c-4.1,0-7.3-3.3-7.3-7.3s3.3-7.3,7.3-7.3
		s7.3,3.3,7.3,7.3S15.9,31,11.9,31z M27.6,22.4c-1.9,0-3.4-1.5-3.4-3.4c0-1.9,1.5-3.4,3.4-3.4S31,17.1,31,19
		C31,20.9,29.5,22.4,27.6,22.4z M34.1,12.7h-6.5h-6.5V6.2l1.7,0.3c1.1,3.3,4.8,3.5,4.8,3.5s3.6-0.1,4.8-3.5l1.7-0.3V12.7z M43.2,31
		c-4,0-7.3-3.3-7.3-7.3s3.3-7.3,7.3-7.3s7.3,3.3,7.3,7.3S47.3,31,43.2,31z"/>
	<path d="M16.2,2.2c0.6,0.1,1.2,0.2,1.8,0.5l0,0c0.4,0.2,1.1,0.4,2.2,0.7c-0.9-2-2.9-3.4-5.3-3.4s-4.4,1.4-5.3,3.4
		C11.7,2.3,13.9,1.9,16.2,2.2z"/>
	<path d="M37.1,2.7L37.1,2.7c0.6-0.3,1.2-0.4,1.8-0.5c2.3-0.3,4.6,0.1,6.5,1.2c-0.9-2-2.9-3.4-5.3-3.4c-2.4,0-4.4,1.4-5.3,3.4
		C36.1,3.1,36.7,2.9,37.1,2.7z"/>
</g>
</svg>
