<?xml version="1.0" encoding="utf-8"?>
<!-- Generator: Adobe Illustrator 22.1.0, SVG Export Plug-In . SVG Version: 6.00 Build 0)  -->
<svg version="1.1" id="Layer_1" xmlns="http://www.w3.org/2000/svg" xmlns:xlink="http://www.w3.org/1999/xlink" x="0px" y="0px"
	 viewBox="0 0 76.7 81.3" style="enable-background:new 0 0 76.7 81.3;" xml:space="preserve">
<path d="M68,19.8c-0.5,0-0.9,0.2-1.3,0.5c-0.7,0.7-0.7,1.9,0,2.6s1.9,0.7,2.6,0C70.4,21.8,69.5,19.8,68,19.8z"/>
<path d="M42.9,27.2l2.3-2.3l-6.8-6.8l-3.8-3.8v6.8l-3,3L27.5,20l2-2l-1.1-1.2l-5.1,5.1l1.1,1.1l2-2l4.1,4.1l-5.4,5.4l-6.4-6.4
	l1.7-1.7l1.1-1.1l-2.6-2.6l-1.1,1.1l1.5,1.5L17.6,23l-1.5-1.5l-1.2,1.2l1.5,1.5l-1.7,1.7l-1.5-1.5l-1.1,1.1l2.7,2.7l1.1-1.1l1.7-1.7
	l6.4,6.4l-5.3,5.3l6.3,6.3l-2.4,2.3l-9.1-9.1l-5.7,5.7l9.1,9.1l-3.8,3.8l3.6,8.2l26.8-26.8c0.5-0.5,0.6-1.1,0.7-1.8
	c0.1-0.8,0.1-1.7,0-2.5C44,30.5,43.5,28.8,42.9,27.2z M37.3,34.1c-0.9,0.9-2,1.3-3.1,1.3c-1.2,0-2.3-0.5-3.1-1.3
	c-1.7-1.7-1.7-4.5,0-6.3c0.9-0.9,2-1.3,3.1-1.3s2.3,0.4,3.1,1.3C39,29.5,39,32.3,37.3,34.1z"/>
<path d="M34.1,28.3c-1.5,0-2.7,1.2-2.7,2.7s1.2,2.7,2.7,2.7c2,0,3.3-2.3,2.3-4C35.9,28.8,35,28.3,34.1,28.3z"/>
<path d="M60.9,26.9c-0.5,0-0.9,0.2-1.3,0.5c-0.7,0.7-0.7,1.9,0,2.6c0.7,0.7,1.9,0.7,2.6,0C63.3,28.8,62.5,26.9,60.9,26.9z"/>
<path d="M53.9,33.9c-0.5,0-0.9,0.2-1.3,0.5c-0.9,0.9-0.5,2.7,0.7,3c0.4,0.1,0.9,0.1,1.2-0.1c0.8-0.3,1.3-1.2,1-2.1
	C55.4,34.5,54.8,33.9,53.9,33.9z"/>
<rect x="3.4" y="34.1" transform="matrix(0.7071 -0.7071 0.7071 0.7071 -23.3962 15.8367)" width="8" height="4.2"/>
<polygon points="66.5,67.1 36.4,72.3 17.1,69.3 1.2,73.9 0,81.3 67.6,81.3 73.8,74.2 "/>
<circle cx="52.2" cy="9.8" r="2.5"/>
<circle cx="45.9" cy="14.4" r="1.7"/>
<path d="M47.4,0c-1.6,0-3,1.3-3,3s1.3,3,3,3c1.6,0,3-1.3,3-3S49,0,47.4,0z"/>
<path d="M17.6,65.3l18.8,2.9l8.4-1.4l4.5-4.5l2.3-4.8l-5-1.8l5-1.8l-2.3-4.8l4.8,2.3l1.8-5l1.8,5l4.8-2.3l11-11
	c2.6-2.6,3.7-6.3,3-10.2L71.8,1.2L45.2,27.7c0.6,2,2.2,7.8-0.3,10.3L17.6,65.3z M68,18.5c1.3,0,2.5,0.8,2.9,2
	c0.6,1.6-0.2,3.5-1.8,4.1c-1.8,0.7-3.9-0.4-4.3-2.2C64.4,20.4,66,18.5,68,18.5z M60.9,25.5c1.3,0,2.5,0.8,2.9,2
	c0.6,1.6-0.2,3.5-1.8,4.1c-1.8,0.7-3.9-0.4-4.3-2.2C57.4,27.4,59,25.6,60.9,25.5z M53.9,32.5c0.8,0,1.6,0.3,2.3,0.9
	c1.2,1.2,1.2,3.3,0,4.5s-3.3,1.2-4.5,0C49.7,36,51.1,32.5,53.9,32.5z"/>
</svg>
