<?xml version="1.0" encoding="utf-8"?>
<!-- Generator: Adobe Illustrator 22.1.0, SVG Export Plug-In . SVG Version: 6.00 Build 0)  -->
<svg version="1.1" id="Layer_1" xmlns="http://www.w3.org/2000/svg" xmlns:xlink="http://www.w3.org/1999/xlink" x="0px" y="0px"
	 viewBox="0 0 68.6 74.8" style="enable-background:new 0 0 68.6 74.8;" xml:space="preserve">
<style type="text/css">
	.st0{fill:#334561;}
	.st1{fill:#001739;}
</style>
<path d="M46.6,50.9c-0.2-0.1-0.4-0.2-0.7-0.3c0,0-1.6,1.7-1.7,1.7c2.3,0.3,4.2,2.2,4.2,4.6c0,2.6-2.1,4.6-4.7,4.6S39,59.4,39,56.9
	c0-2.4,1.9-4.4,4.2-4.6l-1.7-1.7c-2,0.7-3.7,2.3-4.3,4.5C37,55.7,37,56.3,37,56.9c0,3.6,3,6.7,6.7,6.7c2.5,0,4.9-1.7,6-3.9
	C51.4,56.5,49.8,52.5,46.6,50.9z"/>
<path d="M43.8,72.6c-6.1,0-12.8-4.3-18-10.3v12.5h36V62.7C56.7,68.6,50.1,72.6,43.8,72.6z"/>
<path d="M31.1,53.8c-1.5,0-5.3,0-5.3,0c-5,0-9.9,2.1-13.2,5.9c-2.8,3.2-4.7,7.6-3.7,11.9c0.1,0.2,0.8,3.2,1.1,3.2h6.1
	c-0.7-1.2-1.3-2.6-1.6-4c-0.8-4.3,2.4-8.2,6-10c1.7-0.9,3.7-1.3,5.6-1.3h5L31.1,53.8z"/>
<path d="M62,19.7c-0.2-0.2-0.3-0.4-0.5-0.6c-0.8-0.7-1.9-0.8-2.9-0.9c-3.7-0.4-11.7-1.4-12-1.5c-1.1-0.1-2.3-0.2-3.5-0.2
	c-1.1,0-2.3,0.1-3.4,0.2c-4,0.5-8.1,1-12.1,1.5c-1,0.1-2,0.1-2.8,0.7c-0.3,0.2-0.5,0.4-0.7,0.7L62,19.7L62,19.7z"/>
<path d="M37.3,26c-0.4-0.6-1.1-1-1.8-1H25.3c-1.2,0-2.2,1-2.2,2.2v6.2c0,1,0.6,1.8,1.6,2.1l6.9,2.2c1.1,0.4,2.4-0.3,2.8-1.3l3.2-8.4
	C37.8,27.4,37.8,26.6,37.3,26z"/>
<path d="M64.7,21.4H22.8c-2,0-3.6,1.6-3.6,3.6v9.6c0,1.6,1,3,2.5,3.5c0,0,11.4,3.6,11.8,3.6c1.5,0,2.9-0.9,3.4-2.3l5.2-13.2
	c0.3-0.7,0.9-1.1,1.6-1.1c0.7,0,1.3,0.4,1.6,1.1l5.4,13.1c0.5,1.4,1.9,2.4,3.4,2.4c0.4,0,11.8-3.6,11.8-3.6c1.5-0.5,2.5-1.9,2.5-3.5
	V25C68.4,23,66.7,21.4,64.7,21.4z M39.4,27.9l-3.6,9.5c-0.6,1.6-2.4,2.5-4.1,2l-7.8-2.5c-1.4-0.4-2.3-1.7-2.3-3.1v-7
	c0-1.8,1.5-3.3,3.3-3.3h11.5C38.7,23.5,40.2,25.8,39.4,27.9z M66,33.8c0,1.4-0.9,2.7-2.3,3.2l-7.9,2.5c-1.7,0.5-3.5-0.3-4.1-2
	L48,27.9c-0.8-2.2,0.8-4.5,3.1-4.5h11.6c1.8,0,3.3,1.5,3.3,3.3V33.8z"/>
<path d="M56,37.9l6.9-2.2c0.9-0.3,1.6-1.2,1.6-2.1v-6.2c0-1.2-1-2.2-2.2-2.2H52.1c-0.7,0-1.4,0.4-1.8,1c-0.4,0.6-0.5,1.4-0.2,2.1
	l3.2,8.4c0.3,0.9,1.2,1.4,2.1,1.4C55.5,38,55.7,37.9,56,37.9z"/>
<path d="M55.7,43.1c-0.5,0.2-1.1,0.3-1.6,0.3c-2.2,0-4.2-1.4-5-3.4l-5.4-13.3l-5.2,13.2c-0.8,2-2.8,3.4-5,3.4
	c-0.5,0-1.1-0.1-1.6-0.3l-7.4-2.4c0.1,0.8,0.4,1.6,1,2.1c0.9,0.9,2.3,1.1,3.5,1.2c2.8,0.3,9.7,1.2,10.1,1.6l3.9,4V36
	c0-0.5,0.4-0.8,0.8-0.8c0.5,0,0.8,0.4,0.8,0.8v13.6c1.4-1.4,3.8-3.9,3.8-3.9c0.3-0.3,0.8-0.3,1.2-0.3c2.5-0.3,9.2-1.3,10.1-1.4
	c0.7-0.1,1.5-0.2,2.1-0.6c0.9-0.6,1.5-1.6,1.6-2.7L55.7,43.1z"/>
<path class="st0" d="M3.7,38.8c-2,0-3.7,1.7-3.7,3.7c0,2,1.7,3.6,3.7,3.6s3.7-1.7,3.7-3.7C7.4,40.4,5.7,38.8,3.7,38.8z"/>
<circle class="st0" cx="13.1" cy="49.4" r="2.5"/>
<path class="st0" d="M10.8,27.9c-2.4,0-4.4,2-4.4,4.4s2,4.4,4.4,4.4s4.4-2,4.4-4.4S13.3,27.9,10.8,27.9z"/>
<path d="M54.3,60.6v-7.8h-2.8c0.6,1.2,1,2.6,1,4.1c0,1.3-0.3,2.6-0.8,3.7L54.3,60.6z"/>
<path d="M33.7,52.9v7.8H36c-0.5-1.1-0.9-2.4-0.9-3.8c0-1.5,0.4-2.8,1-4H33.7z"/>
<ellipse cx="43.8" cy="56.9" rx="2.6" ry="2.6"/>
<path class="st1" d="M22.2,19.8c0.7-1.8,2.5-3,4.7-3.1l12.6-1.6c2.4-0.3,4.9-0.3,7.3,0l12.4,1.6c2.1,0,4,1.3,4.7,3h0.8
	c1.4,0,2.6,0.5,3.5,1.4C66.5,9.1,56.2,0,43.7,0C31.3,0,21,9.2,19.2,21.1C20.1,20.4,21.1,19.9,22.2,19.8z"/>
<path class="st1" d="M66.3,39.7L65,40.1v0.2c0,2.8-2.2,5.1-5,5.2L49.4,47l-2,2.1c0.9,0.4,1.7,1,2.4,1.7h6.4v11.9h-6.1
	c-1.6,1.8-3.9,2.9-6.4,2.9s-4.8-1.1-6.4-2.9h-6.2v-1.3h-3.4c4.8,5.4,10.8,9.1,16.1,9.1c11.8,0,24.8-15.7,24.8-29.4
	c0-0.1,0-1.3,0-2.9C68,38.9,67.2,39.4,66.3,39.7z"/>
<path class="st1" d="M31.1,50.9h6.5c0.7-0.7,1.6-1.3,2.5-1.8l-2-2.1l-10.3-1.5c-2.8,0-5-2.3-5-5.2v-0.1l-1.6-0.5
	c-0.9-0.3-1.6-0.8-2.2-1.4c0,1.7,0,2.8,0,2.9c0,3.7,1,7.5,2.7,11.1c1.4-0.3,2.8-0.5,4.2-0.5h5.3L31.1,50.9z"/>
</svg>
