<?xml version="1.0" encoding="utf-8"?>
<!-- Generator: Adobe Illustrator 22.1.0, SVG Export Plug-In . SVG Version: 6.00 Build 0)  -->
<svg version="1.1" id="Layer_1" xmlns="http://www.w3.org/2000/svg" xmlns:xlink="http://www.w3.org/1999/xlink" x="0px" y="0px"
	 viewBox="0 0 357.3 297" style="enable-background:new 0 0 357.3 297;" xml:space="preserve">
<style type="text/css">
	.st0{fill:#FFFFFF;}
</style>
<g>
	<path class="st0" d="M92.8,158.5c1.5,1.8,3.8,2.9,6.1,2.9c0.2,0,0.3,0,0.5,0c2.5-0.2,4.9-1.5,6.2-3.7l21.5-33.5
		c2-3.2,1.5-7.2-0.9-9.8l28-41.7l-3.3-2.2l-28,41.8c-3.4-1.1-7.2,0.2-9.2,3.3l-15.6,24.3l-21-25.1c-1.4-1.7-3.3-2.6-5.3-2.8
		c-0.8-0.3-1.6-0.4-2.4-0.4H30.7c-0.1,0-0.2,0-0.2,0c-1.8,0-4.9,0.4-8.3,2.1c-5.4,2.7-11.2,8.5-15.2,18.8c-4.1,10.4-6.9,25.4-6.9,48
		c0,5.9,0.2,12.2,0.6,19.2c0.2,4.3,3.8,7.5,8,7.5c0.2,0,0.3,0,0.5,0c4.4-0.3,7.8-4,7.5-8.5c-0.4-6.6-0.6-12.7-0.6-18.2
		c0-24.2,3.5-37.8,7-44.9v33.1v18.9v98c0,6.8,5.5,12.4,12.4,12.4c6.8,0,12.4-5.5,12.4-12.4v-90.3h4.6v90.3c0,6.8,5.5,12.4,12.4,12.4
		c6.8,0,12.4-5.5,12.4-12.4v-98v-18.9v-29L92.8,158.5z"/>
	<circle class="st0" cx="50" cy="83.3" r="22.5"/>
	<polygon class="st0" points="321.6,0 57.6,0 57.6,50.5 62.6,50.5 62.6,5 316.6,5 316.6,144 131.2,144 131.2,149 321.6,149 	"/>
	<circle class="st0" cx="138.8" cy="214.4" r="22.5"/>
	<circle class="st0" cx="223.3" cy="214.4" r="22.5"/>
	<path class="st0" d="M111.7,266.7V297h54.1v-30.3c0.6,1.2,1.2,2.6,1.8,4.2c2.1,5.7,3.9,14.1,4.7,26h17.4
		c1.1-15.3,3.8-24.8,6.5-30.3V297h54.1v-30.3c0.6,1.2,1.2,2.6,1.8,4.2c2.1,5.7,3.9,14.1,4.7,26h17.4c1.1-15.3,3.8-24.8,6.5-30.3V297
		h54.1v-30.3c0.6,1.2,1.2,2.6,1.8,4.2c2.1,5.7,3.9,14.1,4.7,26h16c-1.3-21.2-5.6-34-11-42.3c-3.3-5-7.1-8.2-10.7-10
		c-3.4-1.7-6.4-2.1-8.2-2.1c-0.1,0-0.2,0-0.4,0h-38.6c-0.1,0-0.3,0-0.4,0c-1.8,0-4.8,0.4-8.2,2.1c-5,2.5-10.4,7.7-14.4,16.8
		c-1.1-2.6-2.4-4.8-3.7-6.8c-3.3-5-7.1-8.2-10.7-10c-3.4-1.7-6.4-2.1-8.2-2.1c-0.1,0-0.2,0-0.4,0h-38.6c-0.1,0-0.3,0-0.4,0
		c-1.8,0-4.8,0.4-8.2,2.1c-5,2.5-10.4,7.7-14.4,16.8c-1.1-2.6-2.4-4.8-3.7-6.8c-3.3-5-7.1-8.2-10.7-10c-3.4-1.7-6.4-2.1-8.2-2.1
		c-0.1,0-0.2,0-0.4,0h-38.6c-0.1,0-0.3,0-0.4,0c-1.8,0-4.8,0.4-8.2,2.1c-5.4,2.7-11.2,8.5-15.2,18.8c-3.2,8-5.5,18.7-6.4,33.5h16
		C106.3,281.7,109,272.2,111.7,266.7z"/>
	<circle class="st0" cx="307.8" cy="214.4" r="22.5"/>
</g>
</svg>
