<?xml version="1.0" encoding="utf-8"?>
<!-- Generator: Adobe Illustrator 22.1.0, SVG Export Plug-In . SVG Version: 6.00 Build 0)  -->
<svg version="1.1" id="Layer_1" xmlns="http://www.w3.org/2000/svg" xmlns:xlink="http://www.w3.org/1999/xlink" x="0px" y="0px"
	 viewBox="0 0 95 61.5" style="enable-background:new 0 0 95 61.5;" xml:space="preserve">
<style type="text/css">
	.st0{fill:#FFFFFF;}
</style>
<path class="st0" d="M49.9,48.9L78.4,36l1.2,4.5c0,0-28.3,14.2-28.9,14.2S49.9,48.9,49.9,48.9z M47.4,40c-0.2,0.5,1.6,5.9,1.6,5.9
	l27.8-13.3l-1.2-3.9L47.4,40z M25.6,19.1L25.6,19.1c0.1,0,0.3,0.1,0.5,0.1l0.2,0.1l0.2,0.1c1.2,0.6,2.3,1.3,3.4,1.9l1.2,0.5v-2.4
	L72.5,3.5V1l-5.7-1L25.6,17V19.1z M20.9,18.6c0.2,0,0.3,0,0.5,0h0.1L22,17L63.6,0h-3.5L14.8,17l0.6,2.5C17.1,18.9,19,18.6,20.9,18.6
	z M72.5,20.7l-30,10.8l3.1,5.4l29-11.2L72.5,20.7z M39.6,29.3l48.7-18.4L85,7L36.8,25.8L39.6,29.3z M47.2,57.3L3.5,42.9
	C2.8,42.6,2.9,42,3.3,40c0.2-1.1,0.5-2.3,0.7-2.8l0.1-0.3C4.6,35,5.2,33.1,6,31.3c3.4-7.8,8.7-10.2,11.6-10.9c1.8-0.4,5.3-1,8.2,0.2
	c0.1,0,0.1,0,0.2,0.1c2.7,1.2,5.3,3.1,7.3,4.6c3.6,2.9,6.8,6.4,9.1,10.3c1.9,3.1,3.4,6.5,4.4,10.2c0.7,2.6,1.1,5.2,1.4,7.8v0.1
	c0,1.5,0,2.7,0,2.9C48.1,56.7,47.2,57.3,47.2,57.3z M46.7,55.6c0-0.5,0-1.1,0-2c-0.2-2.5-0.6-5-1.3-7.5c-1-3.5-2.4-6.8-4.2-9.8
	c-2.2-3.7-5.3-7.1-8.8-9.9c-1.9-1.4-4.4-3.3-7-4.4c0,0-0.1,0-0.2-0.1c-2.5-1.1-5.7-0.6-7.3-0.2c-6.1,1.5-9.3,7-10.6,10.1
	c-0.8,1.8-1.4,3.5-1.9,5.4l-0.1,0.3c-0.6,2.6-0.8,3.7-0.9,4.2L46.7,55.6z M32.9,21.8l2.8,2.4L82.4,6.6V4.2l-4.6-1.4L32.9,19.9V21.8z
	 M16.9,51.9l8.7,2.8v-3l-8.7-2.9V51.9z M34,58l8.6,2.4v-3.2L34,54.7V58z M88.4,12.7l-1.9,0.8c1.9,2.8,3.3,5.6,4.3,8.3l0,0
	c0.1,0.2,0.2,0.4,0.3,0.7l0,0c0.6,1.7,1.1,3.3,1.5,4.8c0.1,0.3,0.1,0.5,0.2,0.8l0,0c0.6,2.7,0.9,4.8,0.9,5.9L77,28.3l0.6,1.9
	l15.6,5.2l-45.8,23v3.1l47-23.5l0.6-2.1C95,35.9,95.6,23.6,88.4,12.7z M3,44.2v2.7l8.7,2.8v-2.6L3,44.2L3,44.2z M4.8,30.6
	c0.9-2,1.9-3.8,3.1-5.3c-0.7-0.5-1.8-1.4-1.8-1.9L2.6,30l2,1C4.6,30.9,4.7,30.8,4.8,30.6z M1.8,31.4l-1.9,8.1H2
	c0.3-1.8,0.9-4.3,2-7.1L1.8,31.4z M13.6,20.3l-0.8-2.5l-5.6,4l1.6,2.3C10.3,22.5,11.9,21.2,13.6,20.3z M44.8,51L43,52.3l0.3,0.6
	l-2.5-0.8l0.3-0.2l-2.9-5.5l-3.8,3.5L31.8,49l-2.7-5.1l-3,3.2l-1.5-0.5l3.8-4l-3.9-7.4L20,39.8l3.1,6.3l-1.8-0.6L19,40.8l-2.9,3
	l-1.5-0.3l3.7-3.8l-3.1-6.4l-4.6,4.9L13,43l-1.9-0.6l-1.6-3.1l-1.9,2l-1.5-0.5L8.8,38l-1.3-2.7c0.2-0.6,0.4-1.2,0.7-1.8l1.7,3.4
	l4.6-4.9l-2.4-5c0.3-0.4,0.7-0.7,1.1-1l2.4,4.9l4.1-4.4L18,23.4h0.1c0.4-0.1,0.9-0.2,1.3-0.3l1.2,2.3l2.3-2.4c0.5,0.1,1,0.2,1.4,0.4
	h0.1l-3.1,3.3l3.3,6.3l4-4.1l-2.2-4.6c0.8,0.4,1.6,0.9,2.4,1.5l1.1,2.1l0.8-0.8c0.3,0.2,0.5,0.4,0.8,0.6c0.1,0.1,0.2,0.2,0.3,0.3
	l-1.2,1.2l3.9,7.3l2.8-2.9c0.3,0.4,0.6,0.7,0.9,1.1l-3,3.1l3.4,6.3l3.3-3.1c0.2,0.5,0.4,0.9,0.6,1.4l-3.2,3l3,5.7l2.2-1.6
	C44.6,50,44.7,50.5,44.8,51z M23.8,34.1l-3.3-6.3l-4.2,4.4l3.1,6.4L23.8,34.1z M29.4,41.7l4-4.2l-3.9-7.3l-4,4.1L29.4,41.7z
	 M37.5,45l-3.4-6.3l-4,4.2l3.2,6L37.5,45z M86.9,16.9l-2.7,1.6l2,5.3l3.1-1.9c0.2,0.4,0.4,0.9,0.5,1.3l-3.1,1.9l1.9,4.8l2.6-2.3
	c0.1,0.5,0.3,1.1,0.4,1.6l-2.2,1.9l-2.2-0.7l-1.7-4.5l-4.1,2.5L80.2,28l-2.4-5.6l-2.4,1.4l-0.7-1.3l2.7-1.5l-1.2-2.9l1.2-0.6
	l1.1,2.7l3.9-2.3L81.7,16l1.3-0.5l0.7,1.7l2.5-1.5C86.5,16.1,86.7,16.5,86.9,16.9z M83,19.2l-3.9,2.3l2.2,5.2l3.7-2.3L83,19.2z"/>
</svg>
