<svg xmlns="http://www.w3.org/2000/svg" xmlns:xlink="http://www.w3.org/1999/xlink" version="1.1" x="0px" y="0px" viewBox="14 -14 100 125" style="enable-background:new 14 -14 100 100;" xml:space="preserve"><style type="text/css">
	.st0{display:none;opacity:0.5;}
</style><path d="M66.5,56.4L95,43.5l1.2,4.5c0,0-28.3,14.2-28.9,14.2C66.7,62.2,66.5,56.4,66.5,56.4z M64,47.5c-0.2,0.5,1.6,5.9,1.6,5.9  l27.8-13.3l-1.2-3.9L64,47.5z M42.2,26.6L42.2,26.6c0.1,0,0.3,0.1,0.5,0.1l0.2,0.1l0.2,0.1c1.2,0.6,2.3,1.3,3.4,1.9l1.2,0.5v-2.4  L89.1,11V8.5l-5.7-1l-41.2,17V26.6z M37.5,26.1c0.2,0,0.3,0,0.5,0l0.1,0l0.5-1.6l41.6-17h-3.5l-45.3,17L32,27  C33.7,26.4,35.6,26.1,37.5,26.1z M89.1,28.2l-30,10.8l3.1,5.4l29-11.2L89.1,28.2z M56.2,36.8l48.7-18.4l-3.3-3.9L53.4,33.3  L56.2,36.8z M63.8,64.8L20.1,50.4c-0.7-0.3-0.6-0.9-0.2-2.9c0.2-1.1,0.5-2.3,0.7-2.8l0.1-0.3c0.5-1.9,1.1-3.8,1.9-5.6  C26,31,31.3,28.6,34.2,27.9c1.8-0.4,5.3-1,8.2,0.2c0.1,0,0.1,0,0.2,0.1c2.7,1.2,5.3,3.1,7.3,4.6c3.6,2.9,6.8,6.4,9.1,10.3  c1.9,3.1,3.4,6.5,4.4,10.2c0.7,2.6,1.1,5.2,1.4,7.8l0,0.1c0,1.5,0,2.7,0,2.9C64.7,64.2,63.8,64.8,63.8,64.8z M63.3,63.1  c0-0.5,0-1.1,0-2c-0.2-2.5-0.6-5-1.3-7.5c-1-3.5-2.4-6.8-4.2-9.8c-2.2-3.7-5.3-7.1-8.8-9.9c-1.9-1.4-4.4-3.3-7-4.4  c0,0-0.1,0-0.2-0.1c-2.5-1.1-5.7-0.6-7.3-0.2c-6.1,1.5-9.3,7-10.6,10.1c-0.8,1.8-1.4,3.5-1.9,5.4l-0.1,0.3c-0.6,2.6-0.8,3.7-0.9,4.2  L63.3,63.1z M49.5,29.3l2.8,2.4L99,14.1v-2.4l-4.6-1.4L49.5,27.4V29.3z M33.5,59.4l8.7,2.8v-3l-8.7-2.9V59.4z M50.6,65.5l8.6,2.4  v-3.2l-8.6-2.5V65.5z M105,20.2l-1.9,0.8c1.9,2.8,3.3,5.6,4.3,8.3v0c0.1,0.2,0.2,0.4,0.3,0.7l0,0c0.6,1.7,1.1,3.3,1.5,4.8  c0.1,0.3,0.1,0.5,0.2,0.8l0,0c0.6,2.7,0.9,4.8,0.9,5.9l-16.7-5.7l0.6,1.9l15.6,5.2L64,65.9V69L111,45.5l0.6-2.1  C111.6,43.4,112.2,31.1,105,20.2z M19.6,51.7v2.7l8.7,2.8v-2.6l-8.6-2.8L19.6,51.7z M21.4,38.1c0.9-2,1.9-3.8,3.1-5.3  c-0.7-0.5-1.8-1.4-1.8-1.9l-3.5,6.6l2,1C21.2,38.4,21.3,38.3,21.4,38.1z M18.4,38.9L16.5,47h2.1c0.3-1.8,0.9-4.3,2-7.1L18.4,38.9z   M30.2,27.8l-0.8-2.5l-5.6,4l1.6,2.3C26.9,30,28.5,28.7,30.2,27.8z M61.4,58.5l-1.8,1.3l0.3,0.6l-2.5-0.8l0.3-0.2l-2.9-5.5L51,57.4  l-2.6-0.9l-2.7-5.1l-3,3.2l-1.5-0.5l3.8-4l-3.9-7.4l-4.5,4.6l3.1,6.3l-1.8-0.6l-2.3-4.7l-2.9,3L31.2,51l3.7-3.8l-3.1-6.4l-4.6,4.9  l2.4,4.8l-1.9-0.6l-1.6-3.1l-1.9,2l-1.5-0.5l2.7-2.8l-1.3-2.7c0.2-0.6,0.4-1.2,0.7-1.8l1.7,3.4l4.6-4.9l-2.4-5  c0.3-0.4,0.7-0.7,1.1-1l2.4,4.9l4.1-4.4l-1.7-3.1c0,0,0.1,0,0.1,0c0.4-0.1,0.9-0.2,1.3-0.3l1.2,2.3l2.3-2.4c0.5,0.1,1,0.2,1.4,0.4  c0,0,0.1,0,0.1,0l-3.1,3.3l3.3,6.3l4-4.1L43,31.8c0.8,0.4,1.6,0.9,2.4,1.5l1.1,2.1l0.8-0.8c0.3,0.2,0.5,0.4,0.8,0.6  c0.1,0.1,0.2,0.2,0.3,0.3l-1.2,1.2l3.9,7.3l2.8-2.9c0.3,0.4,0.6,0.7,0.9,1.1l-3,3.1l3.4,6.3l3.3-3.1c0.2,0.5,0.4,0.9,0.6,1.4l-3.2,3  l3,5.7l2.2-1.6C61.2,57.5,61.3,58,61.4,58.5z M40.4,41.6l-3.3-6.3l-4.2,4.4l3.1,6.4L40.4,41.6z M46,49.2l4-4.2l-3.9-7.3l-4,4.1  L46,49.2z M54.1,52.5l-3.4-6.3l-4,4.2l3.2,6L54.1,52.5z M103.5,24.4l-2.7,1.6l2,5.3l3.1-1.9c0.2,0.4,0.4,0.9,0.5,1.3l-3.1,1.9  l1.9,4.8l2.6-2.3c0.1,0.5,0.3,1.1,0.4,1.6l-2.2,1.9l-2.2-0.7l-1.7-4.5l-4.1,2.5l-1.2-0.4l-2.4-5.6L92,31.3L91.3,30l2.7-1.5l-1.2-2.9  L94,25l1.1,2.7l3.9-2.3l-0.7-1.9l1.3-0.5l0.7,1.7l2.5-1.5C103.1,23.6,103.3,24,103.5,24.4z M99.6,26.7l-3.9,2.3l2.2,5.2l3.7-2.3  L99.6,26.7z"/><text x="14" y="101" fill="#000000" font-size="5px" font-weight="bold" font-family="'Helvetica Neue', Helvetica, Arial-Unicode, Arial, Sans-serif">Created by Tamiko Young</text><text x="14" y="106" fill="#000000" font-size="5px" font-weight="bold" font-family="'Helvetica Neue', Helvetica, Arial-Unicode, Arial, Sans-serif">from the Noun Project</text></svg>