<svg xmlns="http://www.w3.org/2000/svg" xmlns:xlink="http://www.w3.org/1999/xlink" version="1.1" x="0px" y="0px" viewBox="0 0 100 125" enable-background="new 0 0 100 100" xml:space="preserve"><symbol id="a" viewBox="-146.5 -148.2 293.1 296.4"><path fill="#000000" d="M142.1-1.5c-0.9,0.4-1.9,0.7-2.9,0.7c-2.5,0-4.9-1.4-6.4-3.8l-11.3-19.9c0,0-1.1,0.3-3,0.4l8,56.8   c1,4.2-1.3,8.3-5,9.4l-0.9,0.2c-3.8,1-7.7-1.6-8.8-5.8l-6.1-36.8l-4.9,0.9l3.7,45.7c0.6,4.3-2.1,8.2-5.9,8.8L98.2,55   c-3.8,0.5-7.4-2.4-8.1-6.6l-5-46.1l-4.9-0.2l1.5,38.5c0.1,0.8,0,1.5-0.1,2.2c3.1,21.2,5.1,44,5.3,47.4c1.6,7.2-2.4,14.4-9.3,17   c-3.8,1.5-8.1,1.2-11.8-0.6c-3.7-1.8-6.4-5.1-7.6-9c0-0.2-0.1-0.4-0.1-0.5l-3.9-21.3l3.6,42.2c0,0.1,0,0.1,0,0.2   c0.5,8.6-5.9,16-14.4,16.8c-4.3,0.4-8.6-0.9-11.9-3.6c-3.3-2.8-5.3-6.6-5.7-11l-2.6-22.9l1.2,34.7v0.3c-0.3,8.8-7.3,15.6-16.1,15.6   H7.6c-8.8,0-16-7.1-16.1-15.9l-2.7-40.9l-0.8,28.8c0,0.1,0,0.3,0,0.4c-0.5,4.3-2.6,8.1-6,10.8c-3.4,2.7-7.6,3.9-11.8,3.4l-1.4-0.2   c-8.5-1-14.8-8.7-14.2-17.2l0-67.3l-8.3,18.9c0,0.1-0.1,0.1-0.1,0.2c-3.6,7.3-11.8,11-19.6,8.8C-82,75.6-87.2,66.7-85,57.9l0.3-1.4   c2.3-9,4.4-17.7,6.4-24.8l3.5-26.1l-5.4-0.5l-9.6,45.2c-1.1,4.1-5.4,6.5-9.5,5.5l-0.4-0.1c-4.2-1-6.8-5.3-5.7-9.5l8.2-45l-5.3-1.5   l-10.1,35.9c-1.5,4.1-6.1,6.1-10.1,4.6l-0.9-0.4c-4-1.5-6.1-5.9-4.6-10l13.9-55.4c-2.1-0.4-3.3-0.8-3.3-0.8l-14.2,18.3   c-1.6,1.9-4,3-6.4,3c-1.4,0-2.8-0.4-4.1-1.1c-3.9-2.2-5.3-7.2-3.2-11.2c4.6-8.5,11.9-22.3,14.7-26.2c4.7-6.5,9.3-12,14.3-16.1   c5-4.1,10.4-6.8,16.9-7.8l2.4-9.6c-0.2,0-0.4-0.1-0.5-0.2c-13.7-5.1-13.3-10.2-12.8-12.3c0-0.1,0.1-0.3,0.1-0.4l14.6-54.6   c0.6-2.2,2.6-3.7,4.8-3.7c0.4,0,0.9,0,1.3,0.2c2.7,0.7,4.3,3.4,3.5,6.1l-12.5,47c1.8,0.1,3.5,0.3,4.9,0.5c7,0.9,16.6,2.8,27.7,5.6   c4.1,1,7.8,2,11.2,3v-57.3c0-2.8,2.2-5,5-5s5,2.2,5,5v84.7c0.2-0.1,0.4-0.1,0.6-0.2c1.7-0.4,3.6-0.8,5.9-1.3c2-0.4,4.1-0.8,6.5-1.2   c5.3-0.9,11.6-1.7,18.6-2.3c0,0,0,0,0,0c10.2-0.8,22-1.1,34.8,0c6.3,0.5,12.9,1.3,19.7,2.5c2.4,0.4,4.8,0.9,7.2,1.4   c0.6,0.1,1.1,0.3,1.7,0.4v-84c0-2.8,2.2-5,5-5c2.8,0,5,2.2,5,5v54c5.3-1.2,12.1-2.4,20.3-3.6c10.3-1.4,19.1-2.2,25.6-2.2h0.8   c0.9,0,2,0,3.1,0.1l-7.1-47.5c-0.4-2.7,1.5-5.3,4.2-5.7c0.3,0,0.5,0,0.7,0c2.4,0,4.6,1.8,4.9,4.3l8.3,55.2l0,0.2c0,0.1,0,0.1,0,0.2   c0,0.1,0,0.2,0,0.3c0,0.1,0,0.2,0,0.3c0.2,4.5-4.1,8-12.9,10.4c-0.2,0.1-0.4,0.1-0.7,0.1l1.4,9.8c5.7,1.8,10.4,5.1,14.6,9.8   c4.2,4.6,7.9,10.6,11.6,17.7c2.2,4.2,7.7,18.8,11.1,27.8C147.5-8,145.9-3.3,142.1-1.5z M77,92.2c-0.1-0.3-0.1-0.5-0.1-0.8   c0-0.4-1.8-22-4.7-43.1v0c-1.8-12.8-3.9-25.4-6.4-32.8c0,0,0,0,0,0c-0.2-0.7-0.4-1.3-0.7-1.9c-2-5.2-3.8-9.4-5.7-12.9   c-3.9-7.2-8-11.7-14.6-16.9c-1.2-1-2.5-2-3.9-3c-1.3-0.9-2-2.4-2-4v-27.9c-6.6-1.2-13.1-2-19.3-2.4c-4.6-0.1-9.9-0.2-15.9-0.2   c-5.3,0-10.1,0.1-14.5,0.2c-7.1,0.5-13.5,1.3-18.9,2.2l0,26.3c0,2-1.2,3.8-3,4.6c-0.4,0.2-0.9,0.4-1.3,0.6   C-43.2-15.6-49.9-8.4-55.4,1c-0.8,1.4-1.6,2.8-2.4,4.3c-2.3,4.5-4.5,9.5-6.6,14.8c-1.9,4.9-5.9,20.4-9,32.6   c-0.6,2.2-1.1,4.3-1.6,6.3l-0.4,1.4c-0.9,3.6,1.2,7.1,4.7,8.1c3.1,0.9,6.4-0.6,7.9-3.5L-50.9,38h0l1.3-2.9c0.9-2,3-3.2,5.2-3   c0,0,1.9,0.2,4.9-0.1c2.5-0.3,5.9-0.9,9.5-2.3c4.3-1.8,7.5-3.9,7.6-3.9c2.3-1.5,5.4-0.9,6.9,1.4c1.5,2.3,0.9,5.4-1.4,6.9   c-3.6,2.4-7.2,4.1-10.5,5.3c-2.4,0.9-5.1,1.7-7.9,2.2l-0.1,76c0,0.1,0,0.3,0,0.5c-0.3,3.3,2.1,6.2,5.3,6.6l1.4,0.2   c1.6,0.2,3.2-0.3,4.5-1.3c1.2-1,2-2.4,2.2-3.9l1.5-52.2c0-1.3,0.6-2.6,1.6-3.5c1-0.9,2.3-1.4,3.6-1.4l7.8,0.2   c2.6,0.1,4.7,2.1,4.8,4.7l4.2,64.3c0,0.1,0,0.2,0,0.3c0,3.3,2.7,6.1,6.1,6.1h0.6c3.3,0,5.9-2.5,6.1-5.8L12,67.6   c-0.1-2.5,1.7-4.7,4.2-5.1l7.6-1.2c1.3-0.2,2.7,0.1,3.8,0.9c1.1,0.8,1.8,2.1,1.9,3.4l6.1,53.8c0,0.1,0,0.1,0,0.2   c0.1,1.6,0.9,3.1,2.2,4.2s2.8,1.5,4.5,1.4c3.2-0.3,5.6-3.1,5.4-6.3l-5.5-64.1c-0.2-2.2,1-4.2,3-5l7.4-3.2c1.4-0.6,3-0.5,4.3,0.2   c1.3,0.7,2.3,2,2.6,3.5l8.3,44.8c0.4,1.2,1.3,2.2,2.4,2.7c1.2,0.6,2.6,0.7,3.9,0.2C76.3,97,77.6,94.6,77,92.2z"/></symbol><g><use xlink:href="#a" width="293.1" height="296.4" x="-146.5" y="-148.2" transform="matrix(0.3009 0 0 -0.3009 50 50)" overflow="visible"/></g><text x="0" y="115" fill="#000000" font-size="5px" font-weight="bold" font-family="'Helvetica Neue', Helvetica, Arial-Unicode, Arial, Sans-serif">Created by HeadsOfBirds</text><text x="0" y="120" fill="#000000" font-size="5px" font-weight="bold" font-family="'Helvetica Neue', Helvetica, Arial-Unicode, Arial, Sans-serif">from the Noun Project</text></svg>