<?xml version="1.0" encoding="utf-8"?>
<!-- Generator: Adobe Illustrator 22.1.0, SVG Export Plug-In . SVG Version: 6.00 Build 0)  -->
<svg version="1.1" id="Layer_1" xmlns="http://www.w3.org/2000/svg" xmlns:xlink="http://www.w3.org/1999/xlink" x="0px" y="0px"
	 viewBox="0 0 88.2 89.2" style="enable-background:new 0 0 88.2 89.2;" xml:space="preserve">
<style type="text/css">
	.st0{fill:#EC1C24;}
</style>
<symbol  id="a" viewBox="-146.5 -148.2 293 296.4">
	<path d="M142.1-1.4c-0.9,0.4-1.9,0.7-2.9,0.7c-2.5,0-4.9-1.4-6.4-3.8l-11.3-19.9c0,0-1.1,0.3-3,0.4l8,56.8c1,4.2-1.3,8.3-5,9.4
		l-0.9,0.2c-3.8,1-7.7-1.6-8.8-5.8l-6.1-36.8l-4.9,0.9l3.7,45.7c0.6,4.3-2.1,8.2-5.9,8.8l-0.4-0.1c-3.8,0.5-7.4-2.4-8.1-6.6l-5-46.1
		l-4.9-0.2l1.5,38.5c0.1,0.8,0,1.5-0.1,2.2c3.1,21.2,5.1,44,5.3,47.4c1.6,7.2-2.4,14.4-9.3,17c-3.8,1.5-8.1,1.2-11.8-0.6
		c-3.7-1.8-6.4-5.1-7.6-9c0-0.2-0.1-0.4-0.1-0.5l-3.9-21.3l3.6,42.2c0,0.1,0,0.1,0,0.2c0.5,8.6-5.9,16-14.4,16.8
		c-4.3,0.4-8.6-0.9-11.9-3.6c-3.3-2.8-5.3-6.6-5.7-11l-2.6-22.9l1.2,34.7v0.3c-0.3,8.8-7.3,15.6-16.1,15.6H7.6
		c-8.8,0-16-7.1-16.1-15.9l-2.7-40.9l-0.8,28.8c0,0.1,0,0.3,0,0.4c-0.5,4.3-2.6,8.1-6,10.8c-3.4,2.7-7.6,3.9-11.8,3.4l-1.4-0.2
		c-8.5-1-14.8-8.7-14.2-17.2V50.1L-53.7,69c0,0.1-0.1,0.1-0.1,0.2c-3.6,7.3-11.8,11-19.6,8.8C-82,75.7-87.2,66.8-85,58l0.3-1.4
		c2.3-9,4.4-17.7,6.4-24.8l3.5-26.1l-5.4-0.5l-9.6,45.2c-1.1,4.1-5.4,6.5-9.5,5.5l-0.4-0.1c-4.2-1-6.8-5.3-5.7-9.5l8.2-45l-5.3-1.5
		l-10.1,35.9c-1.5,4.1-6.1,6.1-10.1,4.6l-0.9-0.4c-4-1.5-6.1-5.9-4.6-10l13.9-55.4c-2.1-0.4-3.3-0.8-3.3-0.8L-131.8-8
		c-1.6,1.9-4,3-6.4,3c-1.4,0-2.8-0.4-4.1-1.1c-3.9-2.2-5.3-7.2-3.2-11.2c4.6-8.5,11.9-22.3,14.7-26.2c4.7-6.5,9.3-12,14.3-16.1
		s10.4-6.8,16.9-7.8l2.4-9.6c-0.2,0-0.4-0.1-0.5-0.2c-13.7-5.1-13.3-10.2-12.8-12.3c0-0.1,0.1-0.3,0.1-0.4l14.6-54.6
		c0.6-2.2,2.6-3.7,4.8-3.7c0.4,0,0.9,0,1.3,0.2c2.7,0.7,4.3,3.4,3.5,6.1l-12.5,47c1.8,0.1,3.5,0.3,4.9,0.5c7,0.9,16.6,2.8,27.7,5.6
		c4.1,1,7.8,2,11.2,3v-57.3c0-2.8,2.2-5,5-5s5,2.2,5,5v84.7c0.2-0.1,0.4-0.1,0.6-0.2c1.7-0.4,3.6-0.8,5.9-1.3c2-0.4,4.1-0.8,6.5-1.2
		c5.3-0.9,11.6-1.7,18.6-2.3l0,0c10.2-0.8,22-1.1,34.8,0c6.3,0.5,12.9,1.3,19.7,2.5c2.4,0.4,4.8,0.9,7.2,1.4
		c0.6,0.1,1.1,0.3,1.7,0.4v-84c0-2.8,2.2-5,5-5s5,2.2,5,5v54c5.3-1.2,12.1-2.4,20.3-3.6c10.3-1.4,19.1-2.2,25.6-2.2h0.8
		c0.9,0,2,0,3.1,0.1l-7.1-47.5c-0.4-2.7,1.5-5.3,4.2-5.7c0.3,0,0.5,0,0.7,0c2.4,0,4.6,1.8,4.9,4.3l8.3,55.2v0.2c0,0.1,0,0.1,0,0.2
		s0,0.2,0,0.3c0,0.1,0,0.2,0,0.3c0.2,4.5-4.1,8-12.9,10.4c-0.2,0.1-0.4,0.1-0.7,0.1l1.4,9.8c5.7,1.8,10.4,5.1,14.6,9.8
		c4.2,4.6,7.9,10.6,11.6,17.7c2.2,4.2,7.7,18.8,11.1,27.8C147.5-7.9,145.9-3.2,142.1-1.4z M77,92.3c-0.1-0.3-0.1-0.5-0.1-0.8
		c0-0.4-1.8-22-4.7-43.1l0,0c-1.8-12.8-3.9-25.4-6.4-32.8l0,0c-0.2-0.7-0.4-1.3-0.7-1.9c-2-5.2-3.8-9.4-5.7-12.9
		c-3.9-7.2-8-11.7-14.6-16.9c-1.2-1-2.5-2-3.9-3c-1.3-0.9-2-2.4-2-4V-51c-6.6-1.2-13.1-2-19.3-2.4c-4.6-0.1-9.9-0.2-15.9-0.2
		c-5.3,0-10.1,0.1-14.5,0.2c-7.1,0.5-13.5,1.3-18.9,2.2v26.3c0,2-1.2,3.8-3,4.6c-0.4,0.2-0.9,0.4-1.3,0.6
		c-9.2,4.2-15.9,11.4-21.4,20.8c-0.8,1.4-1.6,2.8-2.4,4.3c-2.3,4.5-4.5,9.5-6.6,14.8c-1.9,4.9-5.9,20.4-9,32.6
		c-0.6,2.2-1.1,4.3-1.6,6.3l-0.4,1.4c-0.9,3.6,1.2,7.1,4.7,8.1c3.1,0.9,6.4-0.6,7.9-3.5l11.9-27l0,0l1.3-2.9c0.9-2,3-3.2,5.2-3
		c0,0,1.9,0.2,4.9-0.1c2.5-0.3,5.9-0.9,9.5-2.3c4.3-1.8,7.5-3.9,7.6-3.9c2.3-1.5,5.4-0.9,6.9,1.4s0.9,5.4-1.4,6.9
		c-3.6,2.4-7.2,4.1-10.5,5.3c-2.4,0.9-5.1,1.7-7.9,2.2l-0.1,76c0,0.1,0,0.3,0,0.5c-0.3,3.3,2.1,6.2,5.3,6.6l1.4,0.2
		c1.6,0.2,3.2-0.3,4.5-1.3c1.2-1,2-2.4,2.2-3.9l1.5-52.2c0-1.3,0.6-2.6,1.6-3.5s2.3-1.4,3.6-1.4l7.8,0.2c2.6,0.1,4.7,2.1,4.8,4.7
		l4.2,64.3c0,0.1,0,0.2,0,0.3c0,3.3,2.7,6.1,6.1,6.1h0.6c3.3,0,5.9-2.5,6.1-5.8L12,67.7c-0.1-2.5,1.7-4.7,4.2-5.1l7.6-1.2
		c1.3-0.2,2.7,0.1,3.8,0.9c1.1,0.8,1.8,2.1,1.9,3.4l6.1,53.8c0,0.1,0,0.1,0,0.2c0.1,1.6,0.9,3.1,2.2,4.2s2.8,1.5,4.5,1.4
		c3.2-0.3,5.6-3.1,5.4-6.3l-5.5-64.1c-0.2-2.2,1-4.2,3-5l7.4-3.2c1.4-0.6,3-0.5,4.3,0.2s2.3,2,2.6,3.5l8.3,44.8
		c0.4,1.2,1.3,2.2,2.4,2.7c1.2,0.6,2.6,0.7,3.9,0.2C76.3,97.1,77.6,94.7,77,92.3z"/>
</symbol>
<polygon class="st0" points="16.7,89.2 76.5,89.2 78.9,71.3 60.8,59.8 45.8,62.6 26.6,60.6 13.1,71.6 "/>
<g>
	
		<use xlink:href="#a"  width="293" height="296.4" x="-146.5" y="-148.2" transform="matrix(0.3009 0 0 -0.3009 44.0819 44.5886)" style="overflow:visible;"/>
</g>
</svg>
